<svg width="64" height="64" viewBox="0 0 64 64" fill="none" xmlns="http://www.w3.org/2000/svg">
<path fill-rule="evenodd" clip-rule="evenodd" d="M31.9906 5.16486e-06C36.805 -0.0027307 41.5579 1.08147 45.8951 3.1718C50.2326 5.26221 54.0425 8.30498 57.0403 12.0732C60.0386 15.8414 62.1475 20.2379 63.2107 24.935C64.2735 29.6321 64.2629 34.5086 63.1794 39.201C62.096 43.8934 59.9677 48.2807 56.9533 52.0359C53.9389 55.7911 50.1158 58.8169 45.7693 60.8887C41.4228 62.96 36.665 64.0235 31.8504 63.9996C27.2915 63.9771 22.7931 62.9803 18.6556 61.0792L2.7097 63.9632C1.89498 64.1105 1.06395 63.8086 0.533708 63.1726C0.00346363 62.5366 -0.144182 61.6646 0.147108 60.8896L4.72126 48.7165C1.91323 44.1315 0.301971 38.9065 0.0455274 33.523C-0.229884 27.7412 1.06769 21.9929 3.80005 16.8905C6.53242 11.788 10.5972 7.52241 15.5616 4.54803C20.5257 1.57373 26.204 0.00193384 31.9906 5.16486e-06ZM30.2478 20.2418C31.0844 19.8951 32.005 19.8044 32.8931 19.9811C33.7812 20.1579 34.5971 20.594 35.2373 21.2345C35.8777 21.875 36.3137 22.691 36.4904 23.5794C36.667 24.4678 36.5764 25.3886 36.2298 26.2254C35.8833 27.0623 35.2964 27.7775 34.5435 28.2808C33.7906 28.784 32.9054 29.0526 31.9999 29.0526C30.4118 29.0526 29.1244 30.3403 29.1244 31.9288V36.8994C29.1244 38.4879 30.4118 39.7757 31.9999 39.7757C33.5879 39.7757 34.8753 38.4879 34.8753 36.8994V34.3966C35.8869 34.1033 36.8533 33.6554 37.7385 33.0638C39.4372 31.9284 40.7612 30.3148 41.543 28.4268C42.3248 26.5388 42.5293 24.4614 42.1307 22.4571C41.7322 20.4529 40.7484 18.6119 39.3038 17.1669C37.8592 15.7219 36.0187 14.7379 34.015 14.3392C32.0113 13.9405 29.9344 14.1452 28.047 14.9272C26.1596 15.7092 24.5463 17.0335 23.4113 18.7326C22.2763 20.4317 21.6705 22.4293 21.6705 24.4729C21.6705 26.0613 22.9579 27.3491 24.5459 27.3491C26.134 27.3491 27.4214 26.0613 27.4214 24.4729C27.4214 23.5671 27.6899 22.6816 28.193 21.9285C28.6961 21.1754 29.4111 20.5884 30.2478 20.2418ZM32 52.202C29.7302 52.197 27.8916 50.3548 27.8916 48.0833C27.8916 45.8085 29.7352 43.9645 32.0094 43.9645C32.0125 43.9645 32.0156 43.9645 32.0187 43.9645C34.2885 43.9696 36.1271 45.8118 36.1271 48.0833C36.1271 50.358 34.2835 52.202 32.0093 52.202C32.0062 52.202 32.0031 52.202 32 52.202Z" fill="#FF4100"/>
</svg>
