<svg width="64" height="64" viewBox="0 0 64 64" fill="none" xmlns="http://www.w3.org/2000/svg">
<path fill-rule="evenodd" clip-rule="evenodd" d="M32 64C16.915 64 9.37258 64 4.6863 59.3136C-3.8147e-07 54.6275 0 47.0848 0 32C0 16.915 -3.8147e-07 9.37258 4.6863 4.6863C9.37258 -3.8147e-07 16.915 0 32 0C47.0848 0 54.6275 -3.8147e-07 59.3136 4.6863C64 9.37258 64 16.915 64 32C64 47.0848 64 54.6275 59.3136 59.3136C54.6275 64 47.0848 64 32 64ZM32 18.4C30.0118 18.4 28.4 20.0118 28.4 22C28.4 23.3255 27.3254 24.4 26 24.4C24.6745 24.4 23.6 23.3255 23.6 22C23.6 17.3608 27.361 13.6 32 13.6C36.639 13.6 40.4 17.3608 40.4 22C40.4 24.2747 39.4928 26.3424 38.0256 27.8528C37.7302 28.1565 37.4486 28.4381 37.1798 28.7066C36.4893 29.3965 35.8842 30.001 35.3533 30.6832C34.6525 31.5837 34.4 32.2458 34.4 32.8V35.2C34.4 36.5254 33.3254 37.6 32 37.6C30.6746 37.6 29.6 36.5254 29.6 35.2V32.8C29.6 30.7034 30.576 29.0061 31.5654 27.735C32.2973 26.7946 33.2173 25.8762 33.9642 25.1311C34.1894 24.9063 34.3987 24.6972 34.5824 24.5081C35.2147 23.8574 35.6 22.9761 35.6 22C35.6 20.0118 33.9882 18.4 32 18.4ZM32 48C33.7674 48 35.2 46.5674 35.2 44.8C35.2 43.0326 33.7674 41.6 32 41.6C30.2326 41.6 28.8 43.0326 28.8 44.8C28.8 46.5674 30.2326 48 32 48Z" fill="#FF4100"/>
</svg>
