<svg width="27" height="27" viewBox="0 0 27 27" fill="none" xmlns="http://www.w3.org/2000/svg">
<g clip-path="url(#clip0_506_131)">
<path d="M13.5 0C6.0561 0 0 6.0561 0 13.5C0 20.9439 6.0561 27 13.5 27C20.944 27 27 20.9439 27 13.5C27 6.0561 20.944 0 13.5 0ZM14.7819 23.9221V22.3153C14.7819 21.7639 14.3334 21.3154 13.782 21.3154H13.0322C12.4808 21.3154 12.0323 21.7639 12.0323 22.3153V23.8974C7.309 23.2338 3.58439 19.4165 3.0628 14.6497H4.45009C5.00143 14.6497 5.44994 14.2012 5.44994 13.6499V12.9C5.44994 12.3487 5.00143 11.9002 4.45009 11.9002H3.1212C3.82052 7.34466 7.45848 3.7452 12.0322 3.10262V4.31794C12.0322 4.86928 12.4807 5.3178 13.0321 5.3178H13.782C14.3333 5.3178 14.7818 4.86928 14.7818 4.31794V3.07788C19.4427 3.64771 23.1699 7.28309 23.8787 11.9002H22.4473C21.896 11.9002 21.4475 12.3487 21.4475 12.9V13.6499C21.4475 14.2012 21.896 14.6497 22.4473 14.6497H23.9372C23.4089 19.4789 19.5931 23.3339 14.7819 23.9221Z" fill="#E93E47"/>
<path d="M19.9149 16.6164L15.991 13.9376C16.0228 13.7767 16.0399 13.6105 16.0399 13.4404C16.0399 12.3089 15.3018 11.3472 14.2819 11.0098V7.90069C14.2819 7.21046 13.7223 6.65088 13.0321 6.65088C12.3419 6.65088 11.7823 7.21046 11.7823 7.90069V11.5267C11.2539 11.9959 10.9202 12.6797 10.9202 13.4403C10.9202 14.8518 12.0685 16.0002 13.48 16.0002C13.7868 16.0002 14.081 15.9458 14.3538 15.8464L18.5055 18.6808C18.721 18.828 18.9662 18.8985 19.2089 18.8985C19.608 18.8985 20.0002 18.7077 20.2423 18.3532C20.6316 17.7832 20.485 17.0056 19.9149 16.6164Z" fill="#E93E47"/>
</g>
<defs>
<clipPath id="clip0_506_131">
<rect width="27" height="27" fill="white"/>
</clipPath>
</defs>
</svg>
