<svg width="125" height="125" viewBox="0 0 125 125" fill="none" xmlns="http://www.w3.org/2000/svg">
<g clip-path="url(#clip0_509_664)">
<mask id="mask0_509_664" style="mask-type:luminance" maskUnits="userSpaceOnUse" x="0" y="0" width="125" height="125">
<path d="M125 0H0V125H125V0Z" fill="white"/>
</mask>
<g mask="url(#mask0_509_664)">
<path d="M125 0H0V125H125V0Z" fill="white"/>
<path d="M114.865 0H10.1351C4.53765 0 0 4.53765 0 10.1351V114.865C0 120.462 4.53765 125 10.1351 125H114.865C120.462 125 125 120.462 125 114.865V10.1351C125 4.53765 120.462 0 114.865 0Z" fill="white"/>
<path d="M20.8009 13.0371C20.7863 17.1162 19.7992 20.5058 14.8636 22.9809L13.8474 21.5873C16.054 20.4913 17.3677 19.2646 18.1152 17.7985L14.2103 18.1614L13.9781 16.5791L18.6742 16.2961C18.8121 15.7371 18.9064 15.142 18.95 14.5178H14.6749V13.0371H20.8009ZM22.4703 24.9551V11.7742H24.3284V16.8404H26.2009V18.3646H24.3284V24.9551H22.4703ZM38.8303 18.205V19.6857H33.8221V21.9792H31.9495V19.6857H26.7381V18.205H38.8303ZM27.9865 14.7646C27.9865 13.0879 29.9027 12.0355 32.7769 12.0209C35.6367 12.0355 37.5456 13.0879 37.5528 14.7646C37.5456 16.4485 35.6367 17.4936 32.7769 17.4936C29.9027 17.4936 27.9865 16.4485 27.9865 14.7646ZM28.1752 24.7519V20.8034H30.0478V23.2567H37.4948V24.7519H28.1752ZM29.9898 14.7646C29.9825 15.5702 31.0713 16.0057 32.7769 16.013C34.4826 16.0057 35.5641 15.5702 35.5641 14.7646C35.5641 13.9226 34.4826 13.4871 32.7769 13.4871C31.0713 13.4871 29.9825 13.9226 29.9898 14.7646ZM50.3709 18.5969V20.0631H41.0223V12.7467H50.2692V14.2419H42.9094V15.6355H49.9644V17.0872H42.9094V18.5969H50.3709ZM39.5996 23.4454V21.9357H51.6919V23.4454H39.5996ZM62.8696 11.7742V16.6807H64.8148V18.1905H62.8696V25.0132H61.0115V11.7742H62.8696ZM52.9693 21.805V12.9936H59.1679V14.4888H54.8129V20.2808C56.7291 20.2663 58.3114 20.1647 60.0679 19.8598L60.2711 21.4131C58.217 21.7615 56.417 21.8123 54.0871 21.805H52.9693ZM77.3717 18.205V19.6857H72.3636V21.9792H70.4906V19.6857H65.2793V18.205H77.3717ZM66.5277 14.7646C66.5277 13.0879 68.444 12.0355 71.3183 12.0209C74.1777 12.0355 76.0865 13.0879 76.094 14.7646C76.0865 16.4485 74.1777 17.4936 71.3183 17.4936C68.444 17.4936 66.5277 16.4485 66.5277 14.7646ZM66.7164 24.7519V20.8034H68.5892V23.2567H76.0359V24.7519H66.7164ZM68.5311 14.7646C68.5237 15.5702 69.6122 16.0057 71.3183 16.013C73.0237 16.0057 74.1055 15.5702 74.1055 14.7646C74.1055 13.9226 73.0237 13.4871 71.3183 13.4871C69.6122 13.4871 68.5237 13.9226 68.5311 14.7646Z" fill="black"/>
</g>
<g clip-path="url(#clip1_509_664)">
<path d="M93 108.5C102.113 108.5 109.5 101.113 109.5 92C109.5 82.8873 102.113 75.5 93 75.5C83.8873 75.5 76.5 82.8873 76.5 92C76.5 101.113 83.8873 108.5 93 108.5Z" fill="#FFA080"/>
<path d="M93 70C80.8505 70 71 79.8505 71 92C71 104.15 80.8505 114 93 114C105.15 114 115 104.15 115 92C115 79.8505 105.15 70 93 70ZM93 108.5C83.8879 108.5 76.5 101.112 76.5 92C76.5 82.8879 83.8879 75.5 93 75.5C102.112 75.5 109.5 82.8879 109.5 92C109.5 101.112 102.112 108.5 93 108.5Z" fill="#FF4100"/>
<path d="M95.75 90.8615V81C95.75 79.4799 94.5201 78.25 93 78.25C91.4799 78.25 90.25 79.4799 90.25 81V92C90.25 92.3596 90.3222 92.7143 90.4624 93.0498C90.602 93.3881 90.8034 93.6947 91.0585 93.947L96.5131 99.4016C97.5897 100.478 99.3786 100.533 100.455 99.4553C101.529 98.3814 101.543 96.6544 100.466 95.5771L95.75 90.8615Z" fill="#FF4100"/>
</g>
</g>
<defs>
<clipPath id="clip0_509_664">
<rect width="125" height="125" fill="white"/>
</clipPath>
<clipPath id="clip1_509_664">
<rect width="44" height="44" fill="white" transform="translate(71 70)"/>
</clipPath>
</defs>
</svg>
