<svg width="32" height="40" viewBox="0 0 32 40" fill="none" xmlns="http://www.w3.org/2000/svg">
<path d="M19.2536 15.4001C20.7516 14.3293 21.9762 12.9081 22.877 11.2959C23.0196 11.0403 23.0162 10.7283 22.868 10.4761C22.72 10.2237 22.449 10.0695 22.1564 10.0695H9.23361C8.94102 10.0695 8.67062 10.2243 8.52242 10.4765C8.37442 10.7285 8.37042 11.0405 8.51302 11.2959C9.41362 12.9081 10.638 14.3293 12.1362 15.4001C13.6836 16.5059 14.9016 17.0007 15.6948 17.0007C16.488 17.0007 17.706 16.5059 19.2536 15.4001Z" fill="#FF4100"/>
<path d="M29.7905 36.8018H28.7755V34.5226C28.7755 29.7252 26.1007 24.7399 21.6205 21.1869L20.1235 19.9997L21.6205 18.8129C26.1007 15.2605 28.7755 10.2753 28.7755 5.47737V3.19818H29.7905C30.6734 3.19818 31.3894 2.48219 31.3894 1.59899C31.3894 0.715996 30.6734 0 29.7905 0H1.59919C0.715991 0 0 0.715996 0 1.59899C0 2.48219 0.715991 3.19818 1.59919 3.19818H2.61439V5.03857C2.61439 10.4841 5.24937 15.6399 9.66295 18.8311L11.2799 19.9997L9.66295 21.1691C5.24937 24.3595 2.61439 29.5155 2.61439 34.9614V36.802H1.59919C0.715991 36.802 0 37.5178 0 38.401C0 39.284 0.715991 40 1.59919 40H29.7903C30.6733 40 31.3892 39.284 31.3892 38.401C31.3894 37.5178 30.6734 36.8018 29.7905 36.8018ZM5.01317 34.9614C5.01317 30.283 7.27677 25.8539 11.0685 23.1131L12.7545 21.8937C13.3603 21.4557 13.7221 20.7479 13.7221 19.9997C13.7221 19.2519 13.3603 18.5437 12.7541 18.1055L11.0683 16.8873C7.27676 14.1459 5.01317 9.71675 5.01317 5.03877V4.36897C5.01317 3.72258 5.53717 3.19839 6.18377 3.19839H25.2061C25.8525 3.19839 26.3769 3.72258 26.3769 4.36897V5.47757C26.3769 9.54955 24.0417 13.8323 20.1305 16.9333L18.5721 18.1689C18.0099 18.6151 17.6877 19.2825 17.6877 19.9999C17.6877 20.7175 18.0099 21.3851 18.5727 21.8313L20.1303 23.0667C24.0419 26.1683 26.3769 30.4508 26.3769 34.5226V35.6314C26.3769 36.2778 25.8527 36.802 25.2061 36.802H6.18377C5.53737 36.802 5.01317 36.278 5.01317 35.6314V34.9614Z" fill="#FF4100"/>
<path d="M24.0214 33.9392C22.2582 30.8466 17.8116 27.8368 15.6948 27.8368C13.578 27.8368 9.13146 30.8466 7.36807 33.9392C7.22247 34.1944 7.22367 34.5082 7.37167 34.762C7.51927 35.0162 7.79127 35.1718 8.08507 35.1718H23.3044C23.5984 35.1718 23.8698 35.0156 24.0174 34.7614C24.1652 34.5078 24.1668 34.1946 24.0214 33.9392Z" fill="#FF4100"/>
</svg>
