<svg width="58" height="58" viewBox="0 0 58 58" fill="none" xmlns="http://www.w3.org/2000/svg">
<g clip-path="url(#clip0_680_1382)">
<path d="M29 50.75C41.0122 50.75 50.75 41.0122 50.75 29C50.75 16.9878 41.0122 7.25 29 7.25C16.9878 7.25 7.25 16.9878 7.25 29C7.25 41.0122 16.9878 50.75 29 50.75Z" fill="#FFA080"/>
<path d="M29 0C12.9847 0 0 12.9847 0 29C0 45.0153 12.9847 58 29 58C45.0153 58 58 45.0153 58 29C58 12.9847 45.0153 0 29 0ZM29 50.75C16.9886 50.75 7.25 41.0114 7.25 29C7.25 16.9886 16.9886 7.25 29 7.25C41.0114 7.25 50.75 16.9886 50.75 29C50.75 41.0114 41.0114 50.75 29 50.75Z" fill="#FF4100"/>
<path d="M32.625 27.4992V14.5C32.625 12.4963 31.0037 10.875 29 10.875C26.9963 10.875 25.375 12.4963 25.375 14.5V29C25.375 29.474 25.4702 29.9416 25.655 30.3838C25.839 30.8297 26.1045 31.2339 26.4408 31.5665L33.6309 38.7567C35.0501 40.1759 37.4082 40.2475 38.8274 38.8274C40.2429 37.4118 40.2611 35.1353 38.8419 33.7152L32.625 27.4992Z" fill="#FF4100"/>
</g>
<defs>
<clipPath id="clip0_680_1382">
<rect width="58" height="58" fill="white"/>
</clipPath>
</defs>
</svg>
