<svg width="59" height="75" viewBox="0 0 59 75" fill="none" xmlns="http://www.w3.org/2000/svg">
<path d="M36.1003 28.8752C38.909 26.8675 41.2051 24.2027 42.8941 21.1799C43.1615 20.7006 43.1551 20.1156 42.8772 19.6427C42.5997 19.1695 42.0916 18.8804 41.543 18.8804H17.3128C16.7642 18.8804 16.2572 19.1706 15.9794 19.6435C15.7019 20.116 15.6944 20.701 15.9617 21.1799C17.6504 24.2027 19.9461 26.8675 22.7552 28.8752C25.6566 30.9486 27.9403 31.8763 29.4275 31.8763C30.9148 31.8763 33.1985 30.9486 36.1003 28.8752Z" fill="#FF4100"/>
<path d="M55.8571 69.0034H53.954V64.7299C53.954 55.7348 48.9388 46.3873 40.5384 39.7254L37.7316 37.4994L40.5384 35.2742C48.9388 28.6135 53.954 19.2663 53.954 10.2701V5.99658H55.8571C57.5127 5.99658 58.8552 4.6541 58.8552 2.99811C58.8552 1.34249 57.5127 0 55.8571 0H2.99847C1.34248 0 0 1.34249 0 2.99811C0 4.6541 1.34248 5.99658 2.99847 5.99658H4.90198V9.44733C4.90198 19.6578 9.84258 29.3249 18.118 35.3083L21.1499 37.4994L18.118 39.692C9.84258 45.674 4.90198 55.3415 4.90198 65.5527V69.0038H2.99847C1.34248 69.0038 0 70.3459 0 72.0019C0 73.6575 1.34248 75 2.99847 75H55.8567C57.5124 75 58.8548 73.6575 58.8548 72.0019C58.8552 70.3459 57.5127 69.0034 55.8571 69.0034ZM9.3997 65.5527C9.3997 56.7807 13.6439 48.476 20.7535 43.337L23.9148 41.0507C25.0506 40.2294 25.729 38.9023 25.729 37.4994C25.729 36.0973 25.0506 34.7694 23.914 33.9478L20.7531 31.6637C13.6439 26.5236 9.3997 18.2189 9.3997 9.44769V8.19182C9.3997 6.97983 10.3822 5.99697 11.5946 5.99697H47.2614C48.4734 5.99697 49.4566 6.97983 49.4566 8.19182V10.2705C49.4566 17.9054 45.0782 25.9356 37.7447 31.75L34.8227 34.0667C33.7686 34.9033 33.1645 36.1547 33.1645 37.4998C33.1645 38.8453 33.7686 40.097 34.8238 40.9337L37.7443 43.25C45.0785 49.0655 49.4566 57.0953 49.4566 64.7299V66.8089C49.4566 68.0209 48.4738 69.0038 47.2614 69.0038H11.5946C10.3826 69.0038 9.3997 68.0213 9.3997 66.8089V65.5527Z" fill="#FF4100"/>
<path d="M45.0401 63.636C41.7341 57.8374 33.3968 52.1941 29.4278 52.1941C25.4588 52.1941 17.1215 57.8374 13.8151 63.636C13.5421 64.1145 13.5444 64.7029 13.8219 65.1788C14.0986 65.6554 14.6086 65.9471 15.1595 65.9471H43.6957C44.247 65.9471 44.7559 65.6543 45.0326 65.1776C45.3097 64.7022 45.3127 64.1149 45.0401 63.636Z" fill="#FF4100"/>
</svg>
