<svg width="14" height="14" viewBox="0 0 14 14" fill="none" xmlns="http://www.w3.org/2000/svg">
<path fill-rule="evenodd" clip-rule="evenodd" d="M7 14C10.8661 14 14 10.8661 14 7C14 3.1339 10.8661 0 7 0C3.1339 0 0 3.1339 0 7C0 10.8661 3.1339 14 7 14ZM3.7821 3.7821C3.91337 3.65087 4.09138 3.57715 4.277 3.57715C4.46261 3.57715 4.64063 3.65087 4.7719 3.7821L7 6.0102L9.2281 3.7821C9.29267 3.71524 9.36991 3.66192 9.45532 3.62523C9.54072 3.58854 9.63257 3.56923 9.72552 3.56842C9.81846 3.56762 9.91064 3.58533 9.99667 3.62052C10.0827 3.65572 10.1609 3.7077 10.2266 3.77342C10.2923 3.83915 10.3443 3.9173 10.3795 4.00333C10.4147 4.08936 10.4324 4.18154 10.4316 4.27448C10.4308 4.36743 10.4115 4.45928 10.3748 4.54468C10.3381 4.63009 10.2848 4.70733 10.2179 4.7719L7.9898 7L10.2179 9.2281C10.3454 9.36012 10.416 9.53694 10.4144 9.72048C10.4128 9.90402 10.3392 10.0796 10.2094 10.2094C10.0796 10.3392 9.90402 10.4128 9.72048 10.4144C9.53694 10.416 9.36012 10.3454 9.2281 10.2179L7 7.9898L4.7719 10.2179C4.63988 10.3454 4.46306 10.416 4.27952 10.4144C4.09598 10.4128 3.92041 10.3392 3.79063 10.2094C3.66084 10.0796 3.58722 9.90402 3.58563 9.72048C3.58403 9.53694 3.65459 9.36012 3.7821 9.2281L6.0102 7L3.7821 4.7719C3.65087 4.64063 3.57715 4.46261 3.57715 4.277C3.57715 4.09138 3.65087 3.91337 3.7821 3.7821Z" fill="#979797"/>
</svg>
