<svg width="33" height="33" viewBox="0 0 33 33" fill="none" xmlns="http://www.w3.org/2000/svg">
<path fill-rule="evenodd" clip-rule="evenodd" d="M16.5 33C25.6129 33 33 25.6129 33 16.5C33 7.38705 25.6129 0 16.5 0C7.38705 0 0 7.38705 0 16.5C0 25.6129 7.38705 33 16.5 33ZM8.91495 8.91495C9.22437 8.60562 9.64398 8.43185 10.0815 8.43185C10.519 8.43185 10.9386 8.60562 11.2481 8.91495L16.5 14.1669L21.7519 8.91495C21.9042 8.75736 22.0862 8.63166 22.2875 8.54518C22.4888 8.45871 22.7054 8.41319 22.9244 8.41129C23.1435 8.40938 23.3608 8.45113 23.5636 8.53409C23.7664 8.61706 23.9506 8.73958 24.1055 8.8945C24.2604 9.04942 24.3829 9.23365 24.4659 9.43643C24.5489 9.6392 24.5906 9.85648 24.5887 10.0756C24.5868 10.2946 24.5413 10.5112 24.4548 10.7125C24.3683 10.9138 24.2426 11.0958 24.0851 11.2481L18.8331 16.5L24.0851 21.7519C24.3856 22.0631 24.5519 22.4799 24.5482 22.9126C24.5444 23.3452 24.3709 23.759 24.0649 24.0649C23.759 24.3709 23.3452 24.5444 22.9126 24.5482C22.4799 24.5519 22.0631 24.3856 21.7519 24.0851L16.5 18.8331L11.2481 24.0851C10.9369 24.3856 10.5201 24.5519 10.0874 24.5482C9.65481 24.5444 9.24097 24.3709 8.93505 24.0649C8.62913 23.759 8.4556 23.3452 8.45184 22.9126C8.44808 22.4799 8.61439 22.0631 8.91495 21.7519L14.1669 16.5L8.91495 11.2481C8.60562 10.9386 8.43185 10.519 8.43185 10.0815C8.43185 9.64398 8.60562 9.22437 8.91495 8.91495Z" fill="#E93E47"/>
</svg>
