<svg width="58" height="51" viewBox="0 0 58 51" fill="none" xmlns="http://www.w3.org/2000/svg">
<path d="M57.5934 25.4452C57.5934 27.2378 56.0927 28.6421 54.3918 28.6421H51.1902L51.2603 44.5964C51.2603 44.8653 51.2402 45.1342 51.2102 45.403V47.0164C51.2102 49.2173 49.4193 51 47.2082 51H45.6074C45.4974 51 45.3873 51 45.2773 50.99C45.1372 51 44.9971 51 44.8571 51L41.6054 50.99H39.2042C36.9931 50.99 35.2022 49.2074 35.2022 47.0064V44.6163V38.2425C35.2022 36.4798 33.7715 35.0557 32.0006 35.0557H25.5974C23.8266 35.0557 22.3959 36.4798 22.3959 38.2425V44.6163V47.0064C22.3959 49.2074 20.605 50.99 18.3939 50.99H15.9927H12.8011C12.651 50.99 12.5009 50.9801 12.3508 50.9701C12.2308 50.9801 12.1107 50.99 11.9907 50.99H10.3899C8.17876 50.99 6.38786 49.2074 6.38786 47.0064V35.8524C6.38786 35.7627 6.38786 35.6632 6.39787 35.5735V28.6321H3.19627C1.39537 28.6321 -0.00532532 27.2378 -0.00532532 25.4353C-0.00532532 24.539 0.294824 23.7422 0.995174 23.0451L26.638 0.796719C27.3383 0.0995899 28.1387 0 28.8391 0C29.5394 0 30.3398 0.19918 30.9401 0.69713L56.4929 23.0551C57.2933 23.7522 57.6935 24.5489 57.5934 25.4452Z" fill="#EB6E75"/>
</svg>
