<svg width="86" height="51" viewBox="0 0 86 51" fill="none" xmlns="http://www.w3.org/2000/svg">
<path d="M26.0799 0C12.0955 0 0.749664 11.4219 0.749664 25.5C0.749664 39.5781 12.0955 51 26.0799 51H59.8535C73.8379 51 85.1838 39.5781 85.1838 25.5C85.1838 11.4219 73.8379 0 59.8535 0H26.0799ZM66.1861 13.8125C67.5857 13.8125 68.9279 14.3722 69.9176 15.3685C70.9072 16.3648 71.4632 17.716 71.4632 19.125C71.4632 20.534 70.9072 21.8852 69.9176 22.8815C68.9279 23.8778 67.5857 24.4375 66.1861 24.4375C64.7865 24.4375 63.4442 23.8778 62.4546 22.8815C61.4649 21.8852 60.909 20.534 60.909 19.125C60.909 17.716 61.4649 16.3648 62.4546 15.3685C63.4442 14.3722 64.7865 13.8125 66.1861 13.8125ZM52.4655 31.875C52.4655 30.466 53.0215 29.1148 54.0112 28.1185C55.0008 27.1222 56.3431 26.5625 57.7427 26.5625C59.1423 26.5625 60.4845 27.1222 61.4742 28.1185C62.4638 29.1148 63.0198 30.466 63.0198 31.875C63.0198 33.284 62.4638 34.6352 61.4742 35.6315C60.4845 36.6278 59.1423 37.1875 57.7427 37.1875C56.3431 37.1875 55.0008 36.6278 54.0112 35.6315C53.0215 34.6352 52.4655 33.284 52.4655 31.875ZM22.9136 18.0625C22.9136 16.2961 24.3252 14.875 26.0799 14.875C27.8345 14.875 29.2462 16.2961 29.2462 18.0625V22.3125H33.4679C35.2225 22.3125 36.6342 23.7336 36.6342 25.5C36.6342 27.2664 35.2225 28.6875 33.4679 28.6875H29.2462V32.9375C29.2462 34.7039 27.8345 36.125 26.0799 36.125C24.3252 36.125 22.9136 34.7039 22.9136 32.9375V28.6875H18.6919C16.9373 28.6875 15.5256 27.2664 15.5256 25.5C15.5256 23.7336 16.9373 22.3125 18.6919 22.3125H22.9136V18.0625Z" fill="#94938E"/>
</svg>
