<svg width="50" height="50" viewBox="0 0 50 50" fill="none" xmlns="http://www.w3.org/2000/svg">
<path d="M25 0C20.0555 0 15.222 1.46622 11.1108 4.21326C6.99952 6.96029 3.79521 10.8648 1.90302 15.4329C0.0108321 20.0011 -0.484251 25.0277 0.480379 29.8773C1.44501 34.7268 3.82603 39.1814 7.32234 42.6777C10.8187 46.174 15.2732 48.555 20.1227 49.5196C24.9723 50.4842 29.9989 49.9892 34.5671 48.097C39.1352 46.2048 43.0397 43.0005 45.7867 38.8892C48.5338 34.778 50 29.9445 50 25C49.9923 18.3719 47.356 12.0175 42.6692 7.33079C37.9825 2.64404 31.6281 0.00766059 25 0ZM38.4615 26.9231H25C24.7474 26.9232 24.4973 26.8736 24.2639 26.777C24.0305 26.6804 23.8185 26.5387 23.6399 26.3601C23.4613 26.1815 23.3196 25.9695 23.223 25.7361C23.1264 25.5027 23.0768 25.2526 23.0769 25V11.5385C23.0769 11.0284 23.2795 10.5393 23.6402 10.1786C24.0008 9.81799 24.49 9.61538 25 9.61538C25.51 9.61538 25.9992 9.81799 26.3598 10.1786C26.7205 10.5393 26.9231 11.0284 26.9231 11.5385V23.0769H38.4615C38.9716 23.0769 39.4607 23.2795 39.8214 23.6402C40.182 24.0008 40.3846 24.49 40.3846 25C40.3846 25.51 40.182 25.9992 39.8214 26.3598C39.4607 26.7205 38.9716 26.9231 38.4615 26.9231Z" fill="#E3486B"/>
</svg>
