<svg width="350" height="100" viewBox="0 0 350 100" fill="none" xmlns="http://www.w3.org/2000/svg">
<g clip-path="url(#clip0_75_23)">
<g filter="url(#filter0_d_75_23)">
<rect x="334.416" y="68.8539" width="316" height="60" rx="15" transform="rotate(176 334.416 68.8539)" fill="white"/>
</g>
<path d="M39.8028 64.3023L35.8807 53.2365L37.6888 53.11L40.4969 61.6851L40.5904 61.6785L42.2713 52.7896L44.0483 52.6654L46.9499 61.2338L47.0434 61.2273L48.6308 52.3449L50.4389 52.2185L48.0951 63.7225L46.3649 63.8435L43.406 55.5766L43.3125 55.5832L41.5329 64.1814L39.8028 64.3023ZM53.8074 58.2795L54.1584 63.2985L52.4906 63.4151L51.7014 52.1302L53.3381 52.0157L53.6324 56.2242L53.7415 56.2166C54.0746 55.2692 54.8292 54.6369 56.1463 54.5448C57.8843 54.4232 59.1207 55.4175 59.2689 57.5374L59.645 62.9148L57.9772 63.0315L57.6153 57.8566C57.5281 56.6097 56.8077 55.9395 55.6855 56.018C54.5087 56.1003 53.7131 56.9312 53.8074 58.2795ZM61.0993 60.4167C60.9563 58.4845 62.5658 57.8707 64.0857 57.6548C64.6447 57.5843 65.9101 57.4254 66.2987 57.3825L66.2435 56.7051C66.1843 55.7459 65.5533 55.234 64.4232 55.313C63.4412 55.3817 62.8805 55.8751 62.7527 56.5106L61.1005 56.6261C61.1504 55.2129 62.3889 54.1082 64.3918 53.9682C65.7401 53.8739 67.7384 54.2276 67.9178 56.682L68.3113 62.3088L66.6903 62.4222L66.6096 61.2688L66.5473 61.2731C66.2641 61.9273 65.5343 62.691 64.1315 62.7891C62.526 62.9013 61.207 62.0695 61.0993 60.4167ZM62.7214 60.3189C62.7781 61.1294 63.4772 61.4956 64.4129 61.438C65.7685 61.3354 66.5158 60.3747 66.4455 59.3693L66.3837 58.5983C66.0035 58.6484 64.8015 58.8186 64.4056 58.8698C63.32 59.024 62.6631 59.485 62.7214 60.3189ZM73.6893 53.4277L73.7819 54.7526L72.0518 54.8736L72.3766 59.5185C72.4514 60.4765 72.931 60.6153 73.4693 60.5855C73.7109 60.5686 74.0755 60.5196 74.3077 60.4798L74.4091 61.9294C74.1852 61.9764 73.8289 62.0327 73.3691 62.0648C72.0676 62.1558 70.8406 61.5211 70.7483 59.9769L70.3995 54.9891L69.1526 55.0763L69.0599 53.7514L70.3069 53.6642L70.1652 51.6379L71.8174 51.5224L71.9591 53.5487L73.6893 53.4277ZM79.7989 61.5055L79.207 53.0418L80.8748 52.9252L81.4667 61.3889L79.7989 61.5055ZM78.8286 50.7658C78.7983 50.2197 79.2431 49.7501 79.8199 49.7097C80.3888 49.6699 80.8947 50.0731 80.9328 50.6187C80.971 51.1642 80.5267 51.6417 79.9572 51.6737C79.381 51.7218 78.8745 51.3108 78.8286 50.7658ZM87.8165 54.758C87.6137 54.0986 87.0533 53.6992 86.1336 53.7635C85.1828 53.83 84.5391 54.3684 84.5922 55.0147C84.6192 55.5141 85.0418 55.8448 85.9923 55.9976L87.3545 56.2156C88.9377 56.4573 89.7455 57.1448 89.8372 58.3445C89.9362 59.8725 88.7188 61.0541 86.56 61.2051C84.5259 61.3473 83.2625 60.5272 82.942 58.9676L84.641 58.8488C84.8425 59.6022 85.4459 59.9438 86.4507 59.8657C87.5267 59.7983 88.1887 59.2977 88.147 58.588C88.101 58.043 87.6712 57.7206 86.7603 57.5729L85.4158 57.3849C83.8648 57.1566 83.0126 56.3939 82.9309 55.2249C82.8257 53.7208 84.0625 52.5927 86.0265 52.4553C87.9125 52.3235 89.1564 53.1998 89.4219 54.6457L87.8165 54.758ZM98.8933 51.6652L98.986 52.9901L97.2558 53.1111L97.5806 57.756C97.6555 58.7141 98.1351 58.8528 98.6734 58.823C98.915 58.8061 99.2796 58.7571 99.5118 58.7174L99.6132 60.167C99.3893 60.214 99.033 60.2702 98.5732 60.3024C97.2717 60.3934 96.0447 59.7587 95.9524 58.2145L95.6036 53.2266L94.3567 53.3138L94.264 51.989L95.511 51.9018L95.3693 49.8755L97.0215 49.7599L97.1632 51.7862L98.8933 51.6652ZM102.61 54.8669L102.961 59.8859L101.293 60.0025L100.504 48.7176L102.141 48.6031L102.435 52.8116L102.544 52.804C102.877 51.8565 103.632 51.2242 104.949 51.1321C106.687 51.0106 107.923 52.0049 108.072 54.1247L108.448 59.5022L106.78 59.6189L106.418 54.444C106.331 53.197 105.61 52.5269 104.488 52.6054C103.311 52.6877 102.516 53.5186 102.61 54.8669ZM114.118 59.278C111.624 59.4524 109.968 57.8374 109.792 55.2105C109.602 52.608 111.036 50.7065 113.397 50.5414C115.322 50.4068 117.237 51.4711 117.451 54.534L117.493 55.1263L111.476 55.547C111.636 57.157 112.65 58.0023 114.037 57.9053C114.98 57.8394 115.568 57.391 115.812 56.8571L117.496 56.7393C117.218 58.1371 115.98 59.1478 114.118 59.278ZM111.397 54.2995L115.769 53.9937C115.679 52.7078 114.778 51.8153 113.509 51.912C112.175 51.9974 111.383 53.1022 111.397 54.2995ZM123.302 58.4635L122.71 49.9998L124.316 49.8875L124.413 51.2748L124.506 51.2682C124.799 50.3002 125.594 49.6885 126.708 49.6106C127.838 49.5316 128.664 50.0299 129.089 50.9478L129.182 50.9413C129.516 50.0016 130.395 49.3528 131.618 49.2672C133.146 49.1604 134.296 50.0433 134.44 51.9833L134.836 57.657L133.169 57.7736L132.783 52.2558C132.703 51.1102 131.952 50.6849 131.079 50.7459C130.012 50.8206 129.447 51.5962 129.518 52.6094L129.895 58.0025L128.243 58.118L127.851 52.5067C127.786 51.5793 127.113 51.0233 126.201 51.0871C125.266 51.1525 124.525 51.9874 124.605 53.1253L124.97 58.3469L123.302 58.4635ZM140.506 57.4328C138.013 57.6071 136.357 55.9922 136.181 53.3652C135.991 50.7627 137.424 48.8612 139.786 48.6961C141.711 48.5615 143.626 49.6258 143.84 52.6887L143.881 53.281L137.865 53.7017C138.024 55.3117 139.039 56.157 140.426 56.06C141.369 55.9941 141.956 55.5458 142.201 55.0118L143.884 54.8941C143.606 56.2919 142.369 57.3025 140.506 57.4328ZM137.785 52.4542L142.157 52.1485C142.068 50.8625 141.167 49.9701 139.897 50.0667C138.564 50.1521 137.772 51.2569 137.785 52.4542ZM145.238 54.5332C145.095 52.6009 146.704 51.9872 148.224 51.7712C148.783 51.7008 150.048 51.5419 150.437 51.499L150.382 50.8215C150.323 49.8624 149.692 49.3505 148.562 49.4295C147.58 49.4982 147.019 49.9916 146.891 50.6271L145.239 50.7426C145.289 49.3294 146.527 48.2247 148.53 48.0847C149.878 47.9904 151.877 48.344 152.056 50.7984L152.45 56.4253L150.829 56.5387L150.748 55.3852L150.686 55.3896C150.402 56.0438 149.673 56.8075 148.27 56.9056C146.664 57.0178 145.345 56.1859 145.238 54.5332ZM146.86 54.4354C146.916 55.2459 147.615 55.6121 148.551 55.5545C149.907 55.4519 150.654 54.4912 150.584 53.4858L150.522 52.7148C150.142 52.7649 148.94 52.9351 148.544 52.9863C147.458 53.1405 146.801 53.6015 146.86 54.4354ZM155.777 51.1491L156.128 56.1681L154.46 56.2847L153.868 47.821L155.474 47.7087L155.571 49.096L155.664 49.0894C155.998 48.1498 156.791 47.507 158.054 47.4187C159.792 47.2972 161.022 48.3154 161.161 50.4124L161.537 55.7899L159.885 55.9054L159.523 50.7305C159.429 49.4997 158.715 48.8135 157.593 48.8919C156.447 48.972 155.683 49.8008 155.777 51.1491ZM163.563 55.6482L162.971 47.1845L164.639 47.0679L165.231 55.5316L163.563 55.6482ZM162.593 44.9085C162.562 44.3624 163.007 43.8927 163.584 43.8524C164.153 43.8126 164.659 44.2158 164.697 44.7613C164.735 45.3069 164.291 45.7843 163.721 45.8163C163.145 45.8644 162.639 45.4535 162.593 44.9085ZM168.574 50.2542L168.925 55.2732L167.257 55.3899L166.665 46.9262L168.271 46.8139L168.368 48.2011L168.461 48.1946C168.795 47.255 169.588 46.6121 170.851 46.5239C172.589 46.4023 173.819 47.4205 173.958 49.5175L174.334 54.895L172.681 55.0106L172.32 49.8357C172.226 48.6049 171.512 47.9186 170.39 47.9971C169.244 48.0772 168.48 48.906 168.574 50.2542ZM180.148 57.856C178.013 58.0053 176.536 57.161 176.277 55.5893L177.976 55.4705C178.196 56.2617 178.972 56.5991 180.07 56.5145C181.395 56.4296 182.189 55.7946 182.105 54.4769L181.988 52.8091L181.879 52.8168C181.621 53.383 181.074 54.2984 179.515 54.4074C177.52 54.5469 175.873 53.1662 175.684 50.4619C175.495 47.7576 176.906 46.1004 178.94 45.9582C180.515 45.8481 181.158 46.7586 181.507 47.2667L181.616 47.2591L181.52 45.8874L183.141 45.7741L183.746 54.4248C183.906 56.5987 182.33 57.7034 180.148 57.856ZM177.385 50.3743C177.493 52.0348 178.336 53.1037 179.794 53.0096C181.211 52.9026 181.934 51.8105 181.812 50.0647C181.692 48.3502 180.831 47.2434 179.398 47.3515C177.924 47.4467 177.264 48.7538 177.385 50.3743ZM193.253 53.7444C190.852 53.9122 189.164 52.276 188.988 49.6569C188.796 47.0232 190.241 45.168 192.641 45.0001C195.026 44.8334 196.707 46.4701 196.891 49.1043C197.074 51.7229 195.637 53.5776 193.253 53.7444ZM190.656 49.5403C190.769 51.1535 191.605 52.4656 193.156 52.3571C194.683 52.2503 195.32 50.8352 195.208 49.222C195.094 47.601 194.265 46.2727 192.737 46.3718C191.187 46.488 190.543 47.9192 190.656 49.5403ZM202.266 44.4367L202.359 45.7616L200.535 45.8891L201.034 53.028L199.366 53.1446L198.867 46.0058L197.558 46.0973L197.465 44.7724L198.774 44.6809L198.706 43.6989C198.608 42.1864 199.514 41.2616 201.065 41.1531C201.463 41.1253 201.879 41.1432 202.211 41.1827L202.308 42.5699C201.993 42.5449 201.75 42.5462 201.602 42.5566C200.721 42.6182 200.333 43.0056 200.391 43.8317L200.442 44.5642L202.266 44.4367ZM208.74 41.149L209.021 45.1704L207.649 45.2663L207.368 41.2449L208.74 41.149ZM210.486 45.068L210.205 41.0465L211.577 40.9506L211.858 44.9721L210.486 45.068ZM217.475 52.0506C215.432 52.1856 213.821 50.6458 213.63 47.9181C213.437 45.1592 214.845 43.4475 216.879 43.3052C218.453 43.1952 219.089 44.1062 219.43 44.6149L219.507 44.6094L219.214 40.4165L220.882 40.2999L221.671 51.5849L220.05 51.6982L219.958 50.3733L219.833 50.3821C219.56 50.9572 219.017 51.9349 217.475 52.0506ZM215.327 47.7681C215.438 49.4676 216.292 50.7002 217.75 50.606C219.167 50.4991 219.878 49.2355 219.754 47.4586C219.631 45.6973 218.77 44.5905 217.337 44.6986C215.863 44.7938 215.203 46.1009 215.327 47.7681ZM223.838 51.4334L223.246 42.9697L224.851 42.8574L224.945 44.1979L225.039 44.1913C225.287 43.2655 226.097 42.6372 227.087 42.5757C227.289 42.5538 227.618 42.5543 227.791 42.5579L227.902 44.1477C227.76 44.1264 227.365 44.0835 227.023 44.1153C225.869 44.1881 225.067 45.0508 225.145 46.1575L225.506 51.3167L223.838 51.4334ZM228.986 48.6769C228.843 46.7447 230.453 46.1309 231.973 45.915C232.532 45.8446 233.797 45.6856 234.186 45.6427L234.13 44.9653C234.071 44.0061 233.44 43.4942 232.31 43.5732C231.328 43.6419 230.767 44.1353 230.64 44.7708L228.987 44.8863C229.037 43.4731 230.276 42.3684 232.279 42.2284C233.627 42.1341 235.625 42.4878 235.805 44.9422L236.198 50.569L234.577 50.6824L234.497 49.529L234.434 49.5333C234.151 50.1875 233.421 50.9512 232.018 51.0493C230.413 51.1615 229.094 50.3297 228.986 48.6769ZM230.608 48.5791C230.665 49.3896 231.364 49.7558 232.3 49.6982C233.655 49.5956 234.403 48.6349 234.332 47.6295L234.271 46.8585C233.89 46.9086 232.688 47.0788 232.293 47.13C231.207 47.2842 230.55 47.7452 230.608 48.5791ZM238.209 50.4284L237.617 41.9647L239.223 41.8525L239.32 43.2397L239.413 43.2332C239.706 42.2651 240.501 41.6534 241.615 41.5755C242.745 41.4965 243.571 41.9948 243.996 42.9127L244.089 42.9062C244.423 41.9666 245.302 41.3177 246.525 41.2322C248.053 41.1254 249.203 42.0082 249.347 43.9482L249.743 49.6219L248.075 49.7385L247.69 44.2207C247.61 43.0751 246.859 42.6498 245.986 42.7109C244.919 42.7855 244.354 43.5612 244.425 44.5743L244.802 49.9674L243.15 50.0829L242.758 44.4716C242.693 43.5442 242.02 42.9882 241.108 43.052C240.172 43.1174 239.432 43.9523 239.512 45.0902L239.877 50.3118L238.209 50.4284ZM251.198 47.1237C251.055 45.1915 252.664 44.5777 254.184 44.3618C254.743 44.2914 256.008 44.1324 256.397 44.0896L256.342 43.4121C256.283 42.4529 255.652 41.941 254.522 42.02C253.54 42.0887 252.979 42.5822 252.851 43.2176L251.199 43.3332C251.249 41.92 252.487 40.8153 254.49 40.6752C255.838 40.5809 257.837 40.9346 258.016 43.389L258.41 49.0159L256.789 49.1292L256.708 47.9758L256.646 47.9801C256.362 48.6343 255.633 49.398 254.23 49.4961C252.624 49.6084 251.305 48.7765 251.198 47.1237ZM252.82 47.026C252.876 47.8365 253.575 48.2027 254.511 48.1451C255.867 48.0424 256.614 47.0817 256.544 46.0764L256.482 45.3054C256.102 45.3554 254.9 45.5256 254.504 45.5768C253.418 45.731 252.761 46.1921 252.82 47.026ZM263.788 40.1347L263.88 41.4596L262.15 41.5806L262.475 46.2255C262.55 47.1835 263.029 47.3223 263.568 47.2925C263.809 47.2756 264.174 47.2266 264.406 47.1869L264.507 48.6365C264.284 48.6834 263.927 48.7397 263.467 48.7718C262.166 48.8628 260.939 48.2281 260.847 46.6839L260.498 41.6961L259.251 41.7833L259.158 40.4584L260.405 40.3712L260.264 38.3449L261.916 38.2294L262.057 40.2557L263.788 40.1347ZM266 48.4851L265.409 40.0214L267.076 39.9047L267.668 48.3684L266 48.4851ZM265.03 37.7453C265 37.1992 265.445 36.7296 266.021 36.6892C266.59 36.6495 267.096 37.0527 267.134 37.5982C267.173 38.1437 266.728 38.6212 266.159 38.6532C265.583 38.7013 265.076 38.2903 265.03 37.7453ZM273.292 48.1475C270.821 48.3203 269.198 46.609 269.027 44.06C268.839 41.4809 270.264 39.5722 272.649 39.4054C274.582 39.2703 276.056 40.3106 276.355 42.0126L274.734 42.126C274.507 41.343 273.83 40.7247 272.777 40.7905C271.406 40.8942 270.566 42.0963 270.692 43.8966C270.822 45.7515 271.798 46.8344 273.192 46.7291C274.136 46.671 274.8 46.092 274.947 45.1654L276.568 45.0521C276.504 46.709 275.287 48.008 273.292 48.1475ZM277.773 45.2654C277.63 43.3331 279.24 42.7194 280.76 42.5034C281.319 42.433 282.584 42.2741 282.973 42.2312L282.918 41.5537C282.858 40.5946 282.227 40.0827 281.097 40.1617C280.115 40.2304 279.555 40.7238 279.427 41.3593L277.774 41.4748C277.824 40.0616 279.063 38.9569 281.066 38.8169C282.414 38.7226 284.412 39.0762 284.592 41.5306L284.985 47.1575L283.364 47.2709L283.284 46.1174L283.221 46.1218C282.938 46.776 282.208 47.5397 280.806 47.6378C279.2 47.75 277.881 46.9181 277.773 45.2654ZM279.395 45.1676C279.452 45.9781 280.151 46.3443 281.087 46.2867C282.442 46.1841 283.19 45.2234 283.12 44.218L283.058 43.447C282.678 43.4971 281.476 43.6673 281.08 43.7185C279.994 43.8727 279.337 44.3337 279.395 45.1676ZM287.875 35.6153L288.664 46.9003L286.996 47.0169L286.207 35.732L287.875 35.6153ZM291.569 35.357L292.358 46.642L290.69 46.7586L289.901 35.4736L291.569 35.357ZM295.635 49.6081C295.292 49.6243 294.956 49.6399 294.744 49.6234L294.647 48.2362C294.835 48.2387 295.163 48.2236 295.397 48.2151C295.911 48.1713 296.337 48.1102 296.66 47.0147L296.823 46.4394L293.122 38.0834L294.899 37.9592L297.493 44.372L297.587 44.3654L299.263 37.654L301.056 37.5287L298.235 47.3588C297.838 48.7336 297.03 49.5027 295.635 49.6081ZM303.477 34.5243L303.758 38.5457L302.387 38.6417L302.106 34.6202L303.477 34.5243ZM305.224 38.4433L304.942 34.4219L306.314 34.3259L306.595 38.3474L305.224 38.4433ZM310.594 41.9992C310.475 39.9557 311.031 39.2902 312.015 38.5792C312.642 38.136 313.101 37.5244 313.043 36.7061C312.975 35.7319 312.184 35.1685 311.249 35.2339C310.407 35.2928 309.625 35.8644 309.635 37.0227L307.952 37.1404C307.875 35.1487 309.296 33.9608 311.151 33.8311C313.177 33.6894 314.618 34.8104 314.742 36.5873C314.83 37.842 314.288 38.7179 313.341 39.395C312.446 40.0293 312.119 40.616 312.184 41.888L312.191 41.9815L310.601 42.0927L310.594 41.9992ZM310.509 44.3703C310.459 43.7629 310.931 43.2287 311.539 43.1862C312.139 43.1442 312.672 43.6081 312.723 44.2155C312.757 44.8239 312.293 45.3498 311.693 45.3995C311.085 45.4343 310.544 44.9787 310.509 44.3703Z" fill="#7F7F7F"/>
</g>
<defs>
<filter id="filter0_d_75_23" x="4.00903" y="2.00928" width="341.397" height="103.878" filterUnits="userSpaceOnUse" color-interpolation-filters="sRGB">
<feFlood flood-opacity="0" result="BackgroundImageFix"/>
<feColorMatrix in="SourceAlpha" type="matrix" values="0 0 0 0 0 0 0 0 0 0 0 0 0 0 0 0 0 0 127 0" result="hardAlpha"/>
<feOffset dy="4"/>
<feGaussianBlur stdDeviation="6"/>
<feComposite in2="hardAlpha" operator="out"/>
<feColorMatrix type="matrix" values="0 0 0 0 0.339258 0 0 0 0 0.339258 0 0 0 0 0.339258 0 0 0 0.25 0"/>
<feBlend mode="normal" in2="BackgroundImageFix" result="effect1_dropShadow_75_23"/>
<feBlend mode="normal" in="SourceGraphic" in2="effect1_dropShadow_75_23" result="shape"/>
</filter>
<clipPath id="clip0_75_23">
<rect width="350" height="100" fill="white"/>
</clipPath>
</defs>
</svg>
