<svg width="14" height="14" viewBox="0 0 14 14" fill="none" xmlns="http://www.w3.org/2000/svg">
<path fill-rule="evenodd" clip-rule="evenodd" d="M14 7C14 10.8661 10.8661 14 7 14C3.1339 14 0 10.8661 0 7C0 3.1339 3.1339 0 7 0C10.8661 0 14 3.1339 14 7ZM10.7933 9.3268C10.8664 9.15618 10.8688 8.96351 10.7999 8.79115C10.731 8.61879 10.5964 8.48086 10.4258 8.4077L7.7 7.2387V3.15C7.7 2.96435 7.62625 2.7863 7.49497 2.65503C7.3637 2.52375 7.18565 2.45 7 2.45C6.81435 2.45 6.6363 2.52375 6.50503 2.65503C6.37375 2.7863 6.3 2.96435 6.3 3.15V7.469C6.3 7.889 6.5499 8.2691 6.9363 8.4343L9.8742 9.6943C10.0448 9.76743 10.2375 9.76979 10.4099 9.70087C10.5822 9.63196 10.7201 9.4974 10.7933 9.3268Z" fill="black"/>
</svg>
