<svg width="48" height="51" viewBox="0 0 48 51" fill="none" xmlns="http://www.w3.org/2000/svg">
<path d="M47.8731 16.5982C48.1893 17.4649 47.9225 18.4313 47.2408 19.049L42.9626 22.9744C43.0713 23.8013 43.1305 24.6482 43.1305 25.505C43.1305 26.3618 43.0713 27.2086 42.9626 28.0356L47.2408 31.9609C47.9225 32.5786 48.1893 33.545 47.8731 34.4118C47.4384 35.5974 46.9147 36.7332 46.312 37.8291L45.8477 38.6361C45.1956 39.732 44.4644 40.7681 43.6641 41.7445C43.0811 42.4618 42.1129 42.7009 41.2434 42.422L35.74 40.6585C34.416 41.6847 32.9537 42.5415 31.3926 43.1891L30.1576 48.8779C29.96 49.7845 29.2683 50.5019 28.3593 50.6513C26.9958 50.8805 25.5928 51 24.1602 51C22.7275 51 21.3245 50.8805 19.961 50.6513C19.052 50.5019 18.3604 49.7845 18.1628 48.8779L16.9277 43.1891C15.3666 42.5415 13.9043 41.6847 12.5803 40.6585L7.08682 42.4319C6.21734 42.7109 5.24906 42.4618 4.66612 41.7544C3.86581 40.7781 3.13466 39.7419 2.48255 38.646L2.01817 37.839C1.41547 36.7431 0.891804 35.6073 0.457066 34.4218C0.140893 33.555 0.407664 32.5886 1.08941 31.9709L5.36763 28.0455C5.25894 27.2086 5.19966 26.3618 5.19966 25.505C5.19966 24.6482 5.25894 23.8013 5.36763 22.9744L1.08941 19.049C0.407664 18.4313 0.140893 17.4649 0.457066 16.5982C0.891804 15.4126 1.41547 14.2768 2.01817 13.1809L2.48255 12.3739C3.13466 11.278 3.86581 10.2418 4.66612 9.26548C5.24906 8.54815 6.21734 8.30904 7.08682 8.58801L12.5902 10.3514C13.9142 9.32526 15.3765 8.46845 16.9376 7.82086L18.1726 2.13206C18.3702 1.22543 19.0619 0.508107 19.9709 0.358664C21.3344 0.119555 22.7374 0 24.17 0C25.6027 0 27.0057 0.119555 28.3692 0.348701C29.2782 0.498144 29.9698 1.21547 30.1675 2.12209L31.4025 7.8109C32.9636 8.45849 34.4259 9.3153 35.7499 10.3415L41.2533 8.57804C42.1227 8.29908 43.091 8.54815 43.674 9.25552C44.4743 10.2319 45.2054 11.268 45.8575 12.3639L46.3219 13.1709C46.9246 14.2669 47.4483 15.4026 47.883 16.5882L47.8731 16.5982ZM24.17 33.4753C26.2664 33.4753 28.2769 32.6356 29.7592 31.1408C31.2416 29.6461 32.0744 27.6188 32.0744 25.505C32.0744 23.3911 31.2416 21.3638 29.7592 19.8691C28.2769 18.3744 26.2664 17.5347 24.17 17.5347C22.0737 17.5347 20.0632 18.3744 18.5808 19.8691C17.0985 21.3638 16.2657 23.3911 16.2657 25.505C16.2657 27.6188 17.0985 29.6461 18.5808 31.1408C20.0632 32.6356 22.0737 33.4753 24.17 33.4753Z" fill="#94938E"/>
</svg>
