<svg width="23" height="23" viewBox="0 0 23 23" fill="none" xmlns="http://www.w3.org/2000/svg">
<path d="M14.4234 8.625H5.27083C3.94765 8.625 2.875 7.55235 2.875 6.22917C2.875 4.90598 3.94765 3.83333 5.27083 3.83333H14.4234M8.5766 19.1667H17.7292C19.0524 19.1667 20.125 18.094 20.125 16.7708C20.125 15.4477 19.0524 14.375 17.7292 14.375H8.5766M2.875 16.7708C2.875 18.6233 4.37671 20.125 6.22917 20.125C8.08162 20.125 9.58333 18.6233 9.58333 16.7708C9.58333 14.9184 8.08162 13.4167 6.22917 13.4167C4.37671 13.4167 2.875 14.9184 2.875 16.7708ZM20.125 6.22917C20.125 8.08162 18.6233 9.58333 16.7708 9.58333C14.9184 9.58333 13.4167 8.08162 13.4167 6.22917C13.4167 4.37671 14.9184 2.875 16.7708 2.875C18.6233 2.875 20.125 4.37671 20.125 6.22917Z" stroke="#4B4B4B" stroke-width="2.5" stroke-linecap="round" stroke-linejoin="round"/>
</svg>
