<svg width="350" height="100" viewBox="0 0 350 100" fill="none" xmlns="http://www.w3.org/2000/svg">
<g clip-path="url(#clip0_527_79)">
<g filter="url(#filter0_d_527_79)">
<rect x="334.416" y="68.854" width="316" height="60" rx="15" transform="rotate(176 334.416 68.854)" fill="white"/>
</g>
<path d="M67.7271 62.3498L63.805 51.2839L65.6131 51.1575L68.4213 59.7325L68.5148 59.7259L70.1957 50.837L71.9726 50.7128L74.8742 59.2812L74.9678 59.2747L76.5552 50.3923L78.3632 50.2659L76.0194 61.7699L74.2892 61.8909L71.3304 53.624L71.2368 53.6306L69.4573 62.2288L67.7271 62.3498ZM81.7317 56.3269L82.0827 61.3459L80.4149 61.4626L79.6258 50.1776L81.2624 50.0632L81.5567 54.2716L81.6658 54.264C81.999 53.3166 82.7536 52.6843 84.0707 52.5922C85.8086 52.4707 87.045 53.4649 87.1933 55.5848L87.5693 60.9623L85.9015 61.0789L85.5396 55.904C85.4524 54.6571 84.7321 53.9869 83.6098 54.0654C82.433 54.1477 81.6375 54.9787 81.7317 56.3269ZM89.0236 58.4641C88.8806 56.5319 90.4902 55.9181 92.0101 55.7022C92.569 55.6318 93.8345 55.4728 94.223 55.43L94.1678 54.7525C94.1086 53.7933 93.4776 53.2814 92.3475 53.3604C91.3656 53.4291 90.8049 53.9225 90.677 54.558L89.0248 54.6735C89.0748 53.2604 90.3132 52.1557 92.3162 52.0156C93.6644 51.9213 95.6627 52.275 95.8422 54.7294L96.2356 60.3563L94.6146 60.4696L94.5339 59.3162L94.4716 59.3205C94.1884 59.9747 93.4587 60.7384 92.0558 60.8365C90.4504 60.9488 89.1313 60.1169 89.0236 58.4641ZM90.6457 58.3663C90.7024 59.1769 91.4015 59.5431 92.3373 59.4854C93.6928 59.3828 94.4401 58.4221 94.3698 57.4168L94.3081 56.6457C93.9278 56.6958 92.7258 56.866 92.33 56.9172C91.2443 57.0714 90.5874 57.5324 90.6457 58.3663ZM101.614 51.4751L101.706 52.8L99.9761 52.921L100.301 57.5659C100.376 58.5239 100.855 58.6627 101.394 58.6329C101.635 58.616 102 58.567 102.232 58.5273L102.333 59.9768C102.11 60.0238 101.753 60.0801 101.293 60.1122C99.9919 60.2032 98.765 59.5685 98.6727 58.0243L98.3239 53.0365L97.0769 53.1237L96.9843 51.7988L98.2312 51.7116L98.0895 49.6853L99.7418 49.5698L99.8835 51.5961L101.614 51.4751ZM110.899 59.5032C108.857 59.6382 107.246 58.0984 107.055 55.3707C106.862 52.6118 108.269 50.9 110.303 50.7578C111.878 50.6477 112.513 51.5587 112.854 52.0674L112.932 52.062L112.639 47.8691L114.307 47.7525L115.096 59.0374L113.475 59.1508L113.382 57.8259L113.257 57.8346C112.984 58.4097 112.442 59.3875 110.899 59.5032ZM108.752 55.2207C108.863 56.9202 109.716 58.1527 111.174 58.0586C112.592 57.9516 113.303 56.688 113.178 54.9111C113.055 53.1498 112.195 52.0431 110.761 52.1511C109.288 52.2464 108.627 53.5534 108.752 55.2207ZM120.859 58.8067C118.459 58.9745 116.77 57.3383 116.595 54.7192C116.403 52.0855 117.848 50.2303 120.248 50.0624C122.633 49.8957 124.314 51.5324 124.498 54.1666C124.681 56.7852 123.244 58.6399 120.859 58.8067ZM118.263 54.6026C118.376 56.2158 119.212 57.5279 120.762 57.4195C122.29 57.3126 122.927 55.8976 122.814 54.2843C122.701 52.6633 121.872 51.335 120.344 51.4341C118.794 51.5503 118.15 52.9815 118.263 54.6026ZM130.087 58.1614C127.593 58.3358 125.937 56.7208 125.761 54.0939C125.572 51.4914 127.005 49.5899 129.366 49.4248C131.291 49.2902 133.206 50.3545 133.42 53.4174L133.462 54.0097L127.445 54.4304C127.605 56.0404 128.619 56.8857 130.007 56.7887C130.95 56.7228 131.537 56.2744 131.782 55.7405L133.465 55.6227C133.187 57.0206 131.95 58.0312 130.087 58.1614ZM127.366 53.1829L131.738 52.8772C131.648 51.5912 130.748 50.6987 129.478 50.7954C128.145 50.8808 127.353 51.9856 127.366 53.1829ZM139.698 51.1301C139.495 50.4708 138.935 50.0714 138.015 50.1357C137.064 50.2022 136.421 50.7406 136.474 51.3869C136.501 51.8863 136.923 52.217 137.874 52.3698L139.236 52.5878C140.819 52.8295 141.627 53.517 141.719 54.7167C141.818 56.2447 140.6 57.4263 138.441 57.5772C136.407 57.7195 135.144 56.8994 134.823 55.3398L136.522 55.221C136.724 55.9744 137.327 56.3159 138.332 56.2378C139.408 56.1704 140.07 55.6699 140.028 54.9602C139.982 54.4152 139.553 54.0928 138.642 53.945L137.297 53.7571C135.746 53.5288 134.894 52.7661 134.812 51.5971C134.707 50.0929 135.944 48.9648 137.908 48.8275C139.794 48.6956 141.038 49.5719 141.303 51.0179L139.698 51.1301ZM146.498 49.8244L147.445 45.4353L148.769 45.3426L148.244 49.7024L146.498 49.8244ZM151.164 56.5153L150.572 48.0516L152.178 47.9393L152.275 49.3266L152.368 49.32C152.661 48.3519 153.456 47.7403 154.57 47.6624C155.7 47.5833 156.526 48.0816 156.951 48.9996L157.044 48.993C157.378 48.0534 158.257 47.4046 159.48 47.319C161.008 47.2122 162.158 48.0951 162.302 50.0351L162.698 55.7087L161.031 55.8254L160.645 50.3076C160.565 49.1619 159.814 48.7367 158.941 48.7977C157.874 48.8724 157.309 49.648 157.38 50.6612L157.757 56.0542L156.105 56.1698L155.713 50.5585C155.648 49.6311 154.975 49.0751 154.063 49.1389C153.128 49.2043 152.387 50.0392 152.467 51.177L152.832 56.3987L151.164 56.5153ZM164.153 53.2106C164.01 51.2783 165.619 50.6646 167.139 50.4486C167.698 50.3782 168.964 50.2193 169.352 50.1764L169.297 49.4989C169.238 48.5398 168.607 48.0279 167.477 48.1069C166.495 48.1756 165.934 48.669 165.806 49.3045L164.154 49.42C164.204 48.0068 165.442 46.9021 167.445 46.7621C168.793 46.6678 170.792 47.0214 170.971 49.4758L171.365 55.1027L169.744 55.2161L169.663 54.0626L169.601 54.067C169.317 54.7212 168.588 55.4849 167.185 55.583C165.579 55.6952 164.26 54.8633 164.153 53.2106ZM165.775 53.1128C165.831 53.9233 166.531 54.2895 167.466 54.2319C168.822 54.1293 169.569 53.1686 169.499 52.1632L169.437 51.3922C169.057 51.4423 167.855 51.6125 167.459 51.6637C166.373 51.8179 165.716 52.2789 165.775 53.1128ZM174.692 49.8265L175.043 54.8455L173.375 54.9621L172.784 46.4984L174.389 46.3861L174.486 47.7734L174.58 47.7668C174.913 46.8272 175.706 46.1844 176.969 46.0961C178.707 45.9746 179.937 46.9928 180.076 49.0898L180.452 54.4673L178.8 54.5828L178.438 49.408C178.344 48.1771 177.63 47.4909 176.508 47.5693C175.362 47.6495 174.598 48.4782 174.692 49.8265ZM187.609 50.4269L187.264 45.4859L188.916 45.3703L189.508 53.834L187.887 53.9474L187.784 52.4822L187.691 52.4887C187.364 53.42 186.546 54.1508 185.276 54.2396C183.639 54.354 182.409 53.3358 182.262 51.2394L181.886 45.8619L183.554 45.7453L183.916 50.9201C183.997 52.0736 184.749 52.7571 185.762 52.6862C186.69 52.6214 187.71 51.8687 187.609 50.4269ZM195.858 47.2031C195.655 46.5437 195.094 46.1443 194.175 46.2087C193.224 46.2751 192.58 46.8135 192.633 47.4599C192.66 47.9592 193.083 48.2899 194.033 48.4427L195.396 48.6607C196.979 48.9024 197.787 49.5899 197.878 50.7896C197.977 52.3177 196.76 53.4992 194.601 53.6502C192.567 53.7924 191.304 52.9723 190.983 51.4127L192.682 51.2939C192.884 52.0473 193.487 52.3889 194.492 52.3108C195.568 52.2434 196.23 51.7428 196.188 51.0331C196.142 50.4881 195.712 50.1657 194.801 50.018L193.457 49.8301C191.906 49.6017 191.054 48.839 190.972 47.67C190.867 46.1659 192.104 45.0378 194.068 44.9004C195.954 44.7686 197.198 45.6449 197.463 47.0908L195.858 47.2031ZM203.268 53.0442C200.797 53.2169 199.174 51.5057 199.003 48.9567C198.815 46.3776 200.24 44.4688 202.625 44.3021C204.558 44.1669 206.032 45.2072 206.331 46.9092L204.71 47.0226C204.483 46.2396 203.806 45.6213 202.753 45.6871C201.382 45.7908 200.542 46.993 200.668 48.7933C200.798 50.6481 201.774 51.7311 203.168 51.6257C204.112 51.5676 204.776 50.9886 204.923 50.062L206.544 49.9487C206.48 51.6056 205.263 52.9046 203.268 53.0442ZM208.306 52.5196L207.714 44.0558L209.319 43.9436L209.413 45.2841L209.507 45.2775C209.755 44.3517 210.565 43.7234 211.555 43.6619C211.757 43.64 212.086 43.6405 212.259 43.6441L212.37 45.2339C212.227 45.2126 211.833 45.1697 211.491 45.2014C210.337 45.2743 209.535 46.137 209.613 47.2437L209.974 52.4029L208.306 52.5196ZM214.104 52.1141L213.512 43.6504L215.18 43.5338L215.772 51.9975L214.104 52.1141ZM213.134 41.3744C213.103 40.8283 213.548 40.3586 214.125 40.3183C214.694 40.2785 215.2 40.6817 215.238 41.2272C215.276 41.7728 214.832 42.2502 214.262 42.2822C213.686 42.3303 213.18 41.9194 213.134 41.3744ZM218.021 55.0355L217.206 43.3921L218.827 43.2787L218.923 44.6504L219.064 44.6406C219.323 44.0899 219.825 43.0993 221.392 42.9898C223.441 42.8464 225.058 44.3467 225.251 47.1056C225.441 49.8333 224.068 51.5818 222.019 51.7329C220.483 51.8325 219.809 50.9398 219.467 50.4077L219.373 50.4143L219.688 54.9189L218.021 55.0355ZM219.138 47.5017C219.263 49.2786 220.126 50.4321 221.545 50.3407C223.01 50.2304 223.684 48.8911 223.565 47.1921C223.448 45.5243 222.62 44.3214 221.132 44.4332C219.698 44.5257 219.015 45.7404 219.138 47.5017ZM230.564 42.458L230.657 43.7829L228.927 43.9039L229.252 48.5488C229.326 49.5068 229.806 49.6456 230.344 49.6158C230.586 49.5989 230.951 49.5499 231.183 49.5101L231.284 50.9597C231.06 51.0067 230.704 51.063 230.244 51.0951C228.943 51.1861 227.716 50.5514 227.623 49.0072L227.275 44.0194L226.028 44.1066L225.935 42.7817L227.182 42.6945L227.04 40.6682L228.693 40.5527L228.834 42.579L230.564 42.458ZM234.561 39.3591L233.615 43.7483L232.29 43.841L232.815 39.4812L234.561 39.3591ZM240.851 50.2437L240.259 41.78L241.865 41.6678L241.962 43.055L242.055 43.0485C242.348 42.0804 243.143 41.4687 244.258 41.3908C245.388 41.3118 246.214 41.8101 246.638 42.728L246.731 42.7215C247.065 41.7819 247.944 41.133 249.168 41.0475C250.695 40.9407 251.845 41.8235 251.989 43.7635L252.386 49.4372L250.718 49.5538L250.332 44.036C250.252 42.8904 249.502 42.4651 248.629 42.5262C247.561 42.6008 246.997 43.3765 247.067 44.3896L247.445 49.7827L245.792 49.8982L245.4 44.2869C245.335 43.3595 244.662 42.8036 243.75 42.8673C242.815 42.9327 242.074 43.7677 242.154 44.9055L242.519 50.1271L240.851 50.2437ZM258.056 49.213C255.562 49.3874 253.906 47.7724 253.73 45.1454C253.54 42.543 254.974 40.6415 257.335 40.4764C259.26 40.3417 261.175 41.4061 261.389 44.4689L261.431 45.0612L255.414 45.4819C255.574 47.0919 256.588 47.9373 257.975 47.8403C258.918 47.7743 259.506 47.326 259.75 46.792L261.434 46.6743C261.155 48.0721 259.918 49.0827 258.056 49.213ZM255.335 44.2344L259.707 43.9287C259.617 42.6428 258.716 41.7503 257.447 41.8469C256.113 41.9323 255.321 43.0371 255.335 44.2344ZM262.787 46.3134C262.644 44.3812 264.253 43.7674 265.773 43.5515C266.332 43.4811 267.598 43.3221 267.986 43.2793L267.931 42.6018C267.872 41.6426 267.241 41.1307 266.111 41.2097C265.129 41.2784 264.568 41.7718 264.44 42.4073L262.788 42.5228C262.838 41.1097 264.076 40.005 266.079 39.8649C267.428 39.7706 269.426 40.1243 269.605 42.5787L269.999 48.2056L268.378 48.3189L268.297 47.1655L268.235 47.1698C267.952 47.824 267.222 48.5877 265.819 48.6858C264.214 48.7981 262.895 47.9662 262.787 46.3134ZM264.409 46.2156C264.466 47.0262 265.165 47.3923 266.1 47.3347C267.456 47.2321 268.203 46.2714 268.133 45.266L268.071 44.495C267.691 44.5451 266.489 44.7153 266.093 44.7665C265.008 44.9207 264.351 45.3817 264.409 46.2156ZM273.326 42.9293L273.677 47.9483L272.01 48.0649L271.418 39.6012L273.023 39.489L273.12 40.8762L273.214 40.8697C273.547 39.93 274.34 39.2872 275.603 39.1989C277.341 39.0774 278.571 40.0956 278.71 42.1926L279.086 47.5701L277.434 47.6856L277.072 42.5108C276.978 41.28 276.264 40.5937 275.142 40.6722C273.996 40.7523 273.232 41.5811 273.326 42.9293ZM282.67 43.9519C282.551 41.9084 283.108 41.2429 284.092 40.5319C284.718 40.0887 285.177 39.4771 285.12 38.6588C285.052 37.6846 284.26 37.1212 283.325 37.1866C282.483 37.2455 281.701 37.8171 281.712 38.9754L280.028 39.0931C279.952 37.1014 281.372 35.9135 283.227 35.7838C285.253 35.6421 286.694 36.7631 286.819 38.54C286.906 39.7947 286.365 40.6706 285.417 41.3477C284.522 41.982 284.195 42.5687 284.26 43.8407L284.267 43.9342L282.677 44.0454L282.67 43.9519ZM282.586 46.323C282.535 45.7156 283.007 45.1814 283.615 45.1389C284.215 45.0969 284.749 45.5608 284.799 46.1682C284.834 46.7766 284.369 47.3025 283.77 47.3522C283.161 47.387 282.62 46.9314 282.586 46.323Z" fill="#7F7F7F"/>
</g>
<defs>
<filter id="filter0_d_527_79" x="4.00903" y="2.00928" width="341.397" height="103.878" filterUnits="userSpaceOnUse" color-interpolation-filters="sRGB">
<feFlood flood-opacity="0" result="BackgroundImageFix"/>
<feColorMatrix in="SourceAlpha" type="matrix" values="0 0 0 0 0 0 0 0 0 0 0 0 0 0 0 0 0 0 127 0" result="hardAlpha"/>
<feOffset dy="4"/>
<feGaussianBlur stdDeviation="6"/>
<feComposite in2="hardAlpha" operator="out"/>
<feColorMatrix type="matrix" values="0 0 0 0 0.339258 0 0 0 0 0.339258 0 0 0 0 0.339258 0 0 0 0.25 0"/>
<feBlend mode="normal" in2="BackgroundImageFix" result="effect1_dropShadow_527_79"/>
<feBlend mode="normal" in="SourceGraphic" in2="effect1_dropShadow_527_79" result="shape"/>
</filter>
<clipPath id="clip0_527_79">
<rect width="350" height="100" fill="white"/>
</clipPath>
</defs>
</svg>
