<svg width="124" height="125" viewBox="0 0 124 125" fill="none" xmlns="http://www.w3.org/2000/svg">
<g clip-path="url(#clip0_509_655)">
<mask id="mask0_509_655" style="mask-type:luminance" maskUnits="userSpaceOnUse" x="0" y="0" width="124" height="125">
<path d="M124 0H0V125H124V0Z" fill="white"/>
</mask>
<g mask="url(#mask0_509_655)">
<path d="M124 0H0V125H124V0Z" fill="white"/>
<path d="M113.946 0H10.0541C4.50135 0 0 4.53765 0 10.1351V114.865C0 120.462 4.50135 125 10.0541 125H113.946C119.499 125 124 120.462 124 114.865V10.1351C124 4.53765 119.499 0 113.946 0Z" fill="white"/>
<path d="M20.0217 13.5161C20.0145 15.4541 21.7209 17.5227 24.6873 18.0307L23.8809 19.5695C21.5913 19.1122 19.8993 17.813 19.0496 16.1219C18.1856 17.7985 16.4864 19.105 14.2183 19.5695L13.4263 18.0307C16.3423 17.5082 18.0488 15.4323 18.0632 13.5161V12.558H20.0217V13.5161ZM13.1239 23.3583V21.8341H25.1194V23.3583H13.1239ZM36.8844 11.7742V24.9842H35.0268V11.7742H36.8844ZM25.8394 20.4405C26.3146 20.4405 26.8186 20.4332 27.3514 20.426V14.4742H26.1994V12.9936H33.6155V14.4742H32.4491V20.2155C33.0252 20.1719 33.594 20.1139 34.1484 20.0486L34.2348 21.4276C31.4483 21.8848 28.4171 21.9357 26.0122 21.9502L25.8394 20.4405ZM29.1371 20.3897C29.6411 20.3752 30.1523 20.3607 30.6635 20.3316V14.4742H29.1371V20.3897ZM49.2975 17.8856V19.3663H40.0237V12.8774H49.1967V14.3726H41.8381V17.8856H49.2975ZM38.6125 23.3728V21.8486H50.608V23.3728H38.6125ZM62.7187 11.7742V24.9842H60.9906V11.7742H62.7187ZM51.1984 20.934C53.848 19.3517 55.0145 17.4283 55.2665 14.8371H51.9184V13.3419H57.0881C57.0881 14.6048 56.9513 15.7807 56.6345 16.8694H58.2114V12.0645H59.925V24.4035H58.2114V18.3356H56.0657C55.3169 19.8453 54.1001 21.1518 52.2352 22.2405L51.1984 20.934ZM75.0742 11.7887V19.2501H73.231V11.7887H75.0742ZM64.3027 15.5775C64.3027 13.6903 65.8435 12.3838 67.8883 12.3838C69.9259 12.3838 71.4668 13.6903 71.4742 15.5775C71.4668 17.392 69.9259 18.7275 67.8883 18.7275C65.8435 18.7275 64.3027 17.392 64.3027 15.5775ZM66.1027 15.5775C66.0883 16.5573 66.8372 17.1743 67.8883 17.1743C68.9111 17.1743 69.6524 16.5573 69.6598 15.5775C69.6524 14.5396 68.9111 13.9371 67.8883 13.9371C66.8372 13.9371 66.0883 14.5396 66.1027 15.5775ZM66.2899 24.839V19.8453H75.0742V24.839H66.2899ZM68.1041 23.3583H73.2739V21.3115H68.1041V23.3583Z" fill="black"/>
<path opacity="0.5" d="M93.4486 112.489C101.539 110.878 112 105.096 112 90.1451C112 76.5395 101.975 67.4795 94.7662 63.3166C93.1667 62.3928 91.2941 63.6077 91.2941 65.4457V70.1471C91.2941 73.8543 89.7251 80.6213 85.3653 83.4359C83.1394 84.8729 80.7355 82.7221 80.4649 80.0987L80.2428 77.9445C79.9846 75.4401 77.4171 73.9199 75.4022 75.4468C71.7826 78.1898 68 82.9931 68 90.1451C68 108.429 81.6889 113 88.5332 113C88.9313 113 89.3498 112.988 89.7854 112.963C90.9395 112.819 89.7854 113.218 93.4486 112.489Z" fill="#FF4100"/>
<path d="M81 103.818C81 110.61 86.4291 112.711 89.7868 113C90.9334 112.854 89.7868 113.257 93.4262 112.522C96.0969 111.57 99 109.127 99 103.818C99 100.453 96.895 98.3772 95.246 97.4054C94.7415 97.108 94.1557 97.4824 94.1104 98.0697C93.9675 99.9315 92.1945 101.415 90.9864 99.999C89.919 98.748 89.4705 96.9203 89.4705 95.7513V94.2236C89.4705 93.3027 88.551 92.6923 87.7654 93.1624C84.8445 94.9097 81 98.5042 81 103.818Z" fill="#FF4100"/>
</g>
</g>
<defs>
<clipPath id="clip0_509_655">
<rect width="124" height="125" rx="20" fill="white"/>
</clipPath>
</defs>
</svg>
