<svg width="64" height="77" viewBox="0 0 64 77" fill="none" xmlns="http://www.w3.org/2000/svg">
<path d="M64 49.3992C64 66.4172 53.5276 73.8848 45.4352 76.4032C45.0984 76.508 44.784 76.5156 44.504 76.4492C43.3492 76.1752 42.7768 74.6388 43.6076 73.4448C47.1292 68.384 51.2 60.6628 51.2 53.3992C51.2 45.5968 44.6236 36.3852 39.4884 30.7036C38.3144 29.4048 36.2668 30.264 36.2028 32.014C35.9904 37.8108 35.0756 45.5664 31.1312 51.6448C30.4964 52.6232 29.1488 52.704 28.4252 51.7892C27.1928 50.2304 25.9604 48.3052 24.728 46.784C24.064 45.9648 22.8642 45.9536 22.0984 46.6784C19.113 49.5052 14.9333 53.9136 14.9333 59.3992C14.9333 63.1188 16.3744 67.0184 18.0003 70.1556C18.809 71.7164 17.5863 73.5644 16.0721 73.2364C15.9116 73.2016 15.7479 73.1424 15.5829 73.056C8.45228 69.314 0 61.7336 0 49.3992C0 36.8136 17.2412 19.3786 23.8242 2.90692C24.8628 0.30776 28.0644 -0.9136 30.2908 0.78256C43.7756 11.0548 64 30.9116 64 49.3992Z" fill="#FF4100"/>
<path opacity="0.5" d="M14.9337 59.4001C14.9337 63.1197 16.3748 67.0193 18.0006 70.1569C18.8094 71.7173 17.5867 73.5653 16.0725 73.2373C18.0001 75.3985 30.7053 77.0685 44.5045 76.4501C43.3497 76.1761 42.7773 74.6397 43.6081 73.4461C47.1297 68.3849 51.2005 60.6637 51.2005 53.4001C51.2005 45.5977 44.6241 36.3861 39.4889 30.7045C38.3149 29.4057 36.2669 30.2653 36.2029 32.0149C35.9909 37.8117 35.0761 45.5673 31.1317 51.6457C30.4969 52.6241 29.1489 52.7049 28.4257 51.7901C27.1933 50.2317 25.9605 48.3061 24.7281 46.7849C24.0645 45.9657 22.8646 45.9545 22.0988 46.6793C19.1134 49.5061 14.9337 53.9145 14.9337 59.4001Z" fill="#FF8E67"/>
</svg>
