<svg width="55" height="63" viewBox="0 0 55 63" fill="none" xmlns="http://www.w3.org/2000/svg">
<g clip-path="url(#clip0_680_1376)">
<path opacity="0.5" d="M31.6864 61.4492C41.7601 59.4488 54.7852 52.2696 54.7852 33.7055C54.7852 16.8117 42.3028 5.56215 33.3271 0.393129C31.3355 -0.753896 29.0039 0.75456 29.0039 3.0368V8.87434C29.0039 13.4776 27.0503 21.8799 21.6218 25.3748C18.8503 27.1591 15.8571 24.4886 15.5203 21.2311L15.2437 18.5563C14.9222 15.4467 11.7253 13.559 9.21667 15.4549C4.70982 18.8608 0 24.8251 0 33.7055C0 56.4082 17.0443 62.0839 25.5663 62.0839C26.0619 62.0839 26.583 62.0692 27.1254 62.0383C28.5624 61.8588 27.1254 62.355 31.6864 61.4492Z" fill="#FF4100"/>
<path d="M16.1133 50.7314C16.1133 59.0953 22.9173 61.6819 27.1254 62.0382C28.5624 61.8588 27.1254 62.3549 31.6864 61.4492C35.0335 60.2775 38.6719 57.2698 38.6719 50.7314C38.6719 46.5884 36.0338 44.0325 33.9671 42.8359C33.3348 42.4697 32.6007 42.9307 32.544 43.6538C32.3648 45.9464 30.1428 47.7726 28.6288 46.0294C27.2911 44.489 26.729 42.2386 26.729 40.799V38.918C26.729 37.784 25.5766 37.0325 24.5921 37.6113C20.9314 39.7627 16.1133 44.1889 16.1133 50.7314Z" fill="#FF4100"/>
</g>
<defs>
<clipPath id="clip0_680_1376">
<rect width="55" height="63" fill="white"/>
</clipPath>
</defs>
</svg>
