<svg width="64" height="64" viewBox="0 0 64 64" fill="none" xmlns="http://www.w3.org/2000/svg">
<path d="M64 2.29357C64 1.02627 62.9757 0 61.7142 0H38.6083V9.24155C39.1815 8.92058 39.8414 8.73864 40.5434 8.73864C42.7463 8.73864 44.5333 10.5313 44.5333 12.7442C44.5333 14.955 42.7473 16.7487 40.5434 16.7487C39.8414 16.7487 39.1815 16.5657 38.6083 16.2469V25.4874H47.8148C47.4962 26.0629 47.3138 26.7251 47.3138 27.4293C47.3138 29.6421 49.0998 31.4349 51.3042 31.4349C53.5075 31.4349 55.2934 29.6421 55.2934 27.4293C55.2934 26.7251 55.1112 26.0629 54.7935 25.4874H64V2.29357Z" fill="#FF4100"/>
<path d="M53.702 34.4305H42.1027C41.6965 34.4305 41.3207 34.6461 41.1151 34.9957L41.1264 34.9764L41.1131 34.9978C41.0083 35.1767 40.9552 35.379 40.9552 35.5804C40.9552 35.7725 41.0041 35.9666 41.0999 36.1405L41.831 37.462C41.9949 37.7594 42.0752 38.0722 42.0764 38.4135C42.0754 38.9409 41.8737 39.4274 41.5031 39.8015C41.1305 40.1736 40.6449 40.376 40.1204 40.378C39.595 40.3758 39.1094 40.1736 38.7356 39.8015L38.7371 39.8037C38.3654 39.4275 38.1644 38.94 38.1634 38.4137C38.1644 38.0732 38.2448 37.7595 38.4081 37.4612L39.1398 36.1406C39.236 35.9667 39.2844 35.7738 39.2844 35.5805C39.2844 35.3791 39.2314 35.1769 39.1249 34.9958C38.9188 34.6454 38.543 34.4307 38.1374 34.4307H29.4584V29.765C31.0269 29.7404 32.5084 29.12 33.6181 28.0039C34.7544 26.8663 35.3838 25.3404 35.3826 23.7287C35.3836 22.1148 34.7539 20.5889 33.6181 19.4524C32.5093 18.3361 31.0274 17.7168 29.4584 17.6923V10.094C29.4579 9.45832 28.9446 8.94312 28.3114 8.94312H4.3185C3.168 8.94224 2.076 9.39495 1.2645 10.2116C0.458627 11.0211 0.00100166 12.1321 1.65575e-06 13.2788V59.6655C-0.000998344 60.8194 0.451002 61.915 1.2645 62.7306C2.071 63.5391 3.17613 63.9989 4.3185 64.0001H50.5342C51.6736 63.9991 52.7794 63.5391 53.5848 62.7306C54.3984 61.915 54.8494 60.8204 54.8484 59.6655V35.5814C54.8485 34.9457 54.3353 34.4305 53.702 34.4305ZM3.54625 13.2788C3.54625 13.0131 3.6695 12.8322 3.77025 12.731C3.87463 12.6267 4.05425 12.502 4.3185 12.502H25.9119V21.7374C25.9119 21.9602 26.0295 22.1656 26.2204 22.2791C26.3181 22.3363 26.4275 22.365 26.5375 22.365C26.6424 22.365 26.7468 22.3394 26.8415 22.2864L28.1575 21.5524C28.5286 21.3459 28.9329 21.2406 29.3585 21.2406C30.0198 21.2406 30.6424 21.4992 31.1103 21.9684C31.5786 22.4396 31.8363 23.0651 31.8363 23.7284C31.8363 24.3917 31.5786 25.0163 31.1113 25.4864C30.6424 25.9565 30.0198 26.2151 29.3585 26.2151C28.9324 26.2151 28.5286 26.1099 28.158 25.9033L26.841 25.1694C26.7469 25.1163 26.642 25.0907 26.5376 25.0907C26.4276 25.0907 26.3181 25.1193 26.2205 25.1777C26.0296 25.2901 25.912 25.4955 25.912 25.7184V34.9538H20.2151C20.2264 34.8116 20.2319 34.6697 20.2319 34.5297C20.2319 33.0528 19.6591 31.6658 18.6201 30.6244C17.5821 29.5808 16.2004 29.0065 14.7291 29.0065C13.2584 29.0065 11.8768 29.5809 10.8391 30.6234C9.79913 31.6648 9.22638 33.0528 9.22688 34.5287C9.22688 34.6697 9.23238 34.8109 9.24363 34.9539H3.54625V13.2788ZM25.912 60.4412H4.3185C4.05425 60.4412 3.87463 60.3165 3.77275 60.2153C3.6695 60.1111 3.54625 59.9301 3.54625 59.6655V37.9884H12.7461C12.9676 37.9884 13.1728 37.8708 13.2853 37.6797C13.3978 37.4875 13.4009 37.2504 13.293 37.0562L12.5625 35.7347C12.3563 35.3616 12.2519 34.9559 12.2514 34.5297C12.2519 33.8663 12.5101 33.2409 12.9764 32.7706C13.4461 32.3016 14.0689 32.0419 14.7291 32.0419C15.3894 32.0419 16.0121 32.3016 16.4804 32.7696C16.9483 33.2408 17.2064 33.8663 17.2069 34.5285C17.2064 34.9568 17.1014 35.3626 16.8973 35.7336L16.1651 37.0551C16.0571 37.2504 16.0604 37.4875 16.1729 37.6786C16.2854 37.8707 16.4906 37.9883 16.712 37.9883H25.9119V43.7087C25.7703 43.6976 25.6294 43.6924 25.4899 43.6924C24.0181 43.6924 22.6364 44.2668 21.5999 45.3093C20.5594 46.3518 19.9871 47.7388 19.9881 49.2146C19.9871 50.6905 20.5594 52.0785 21.599 53.1199C22.6365 54.1635 24.0183 54.7378 25.49 54.7378C25.6305 54.7378 25.7715 54.7327 25.912 54.7215V60.4412ZM51.303 59.6655C51.303 59.9301 51.1789 60.1101 51.077 60.2133C50.9731 60.3166 50.7939 60.4413 50.5303 60.4413H28.937V51.2059C28.937 50.9831 28.82 50.7777 28.6285 50.6652C28.5308 50.6069 28.4213 50.5784 28.3114 50.5784C28.207 50.5784 28.1021 50.604 28.0079 50.6571L26.6899 51.391C26.3198 51.5974 25.916 51.7027 25.4899 51.7027C24.8296 51.7027 24.2069 51.4432 23.7386 50.9749C23.2708 50.5048 23.0126 49.8793 23.0121 49.2159C23.0126 48.5516 23.2709 47.9271 23.7381 47.457C24.2061 46.9878 24.8286 46.7282 25.49 46.7272C25.9131 46.7272 26.3173 46.8325 26.69 47.0389L28.0075 47.7738C28.1023 47.827 28.2065 47.8526 28.3115 47.8526C28.4214 47.8526 28.5309 47.8238 28.6286 47.7668C28.8195 47.6533 28.9371 47.4478 28.9371 47.2249V37.9885H34.6344C34.6233 38.1306 34.6176 38.2727 34.6176 38.4137C34.6171 39.8885 35.1894 41.2755 36.2284 42.318C37.2669 43.3625 38.6491 43.937 40.1199 43.937C41.5906 43.937 42.9724 43.3625 44.011 42.3191C45.0505 41.2776 45.6217 39.8906 45.6217 38.4138C45.6217 38.2727 45.6166 38.1317 45.6055 37.9887H51.3032V59.6655H51.303Z" fill="#FF4100"/>
</svg>
