<svg width="97" height="66" viewBox="0 0 97 66" fill="none" xmlns="http://www.w3.org/2000/svg">
<path d="M23.3643 35.8635C23.2377 35.1186 23.0202 34.3721 22.7135 33.6467C21.7998 31.4883 21.3 29.2098 21.0728 26.8956C23.5038 28.3172 25.8472 29.88 27.9992 31.7187C32.1813 35.289 38.2783 29.2504 34.067 25.6509C29.5246 21.7722 24.4775 18.8186 19.1594 16.1425C19.0507 16.0873 18.9436 16.0435 18.8349 15.9997C17.6161 14.9335 16.0338 14.2665 14.4418 14.2568C10.6475 14.2308 8.02501 17.2396 7.76373 20.8391C7.655 22.3143 7.65013 23.7683 7.7118 25.2111C6.23175 27.0092 4.43362 28.5103 2.18272 29.635C-2.767 32.105 1.57902 39.5068 6.51413 37.0417C7.5414 36.5305 8.507 35.9219 9.4369 35.2679C9.95134 36.9816 10.5615 38.6792 11.274 40.3604C11.2934 40.4059 11.3194 40.4481 11.3405 40.4903C9.36224 44.1174 7.89518 47.9863 7.75886 52.1943C7.56249 58.1664 11.8761 62.6958 16.9069 65.1447C21.8599 67.5514 26.2124 60.1593 21.2383 57.738C18.2669 56.2888 16.2529 54.7941 16.3665 51.3147C16.4379 49.132 17.4181 46.9071 18.6093 44.8363C22.1471 50.9561 25.771 57.0256 29.4094 63.087C32.251 67.8241 39.6708 63.5138 36.8161 58.7588C32.2624 51.1654 27.7298 43.564 23.3643 35.8635Z" fill="#FF4100"/>
<path d="M12.6097 13.6044C16.1993 13.6044 19.1092 10.6944 19.1092 7.10483C19.1092 3.51523 16.1993 0.605286 12.6097 0.605286C9.02005 0.605286 6.11011 3.51523 6.11011 7.10483C6.11011 10.6944 9.02005 13.6044 12.6097 13.6044Z" fill="#FF4100"/>
<path d="M57.3064 12.9991C60.896 12.9991 63.806 10.0892 63.806 6.49955C63.806 2.90995 60.896 0 57.3064 0C53.7168 0 50.8069 2.90995 50.8069 6.49955C50.8069 10.0892 53.7168 12.9991 57.3064 12.9991Z" fill="#FF4100"/>
<path d="M89.4859 39.6886C87.7397 41.1362 85.8897 42.4491 84.0883 43.8188C82.1165 41.1005 80.0149 38.426 78.3742 35.5357C78.2427 34.8622 78.0237 34.1904 77.7234 33.5429C76.4462 30.8132 75.2129 28.0657 74.0152 25.302C77.5336 26.3503 81.1574 27.066 84.8705 27.5431C90.3476 28.2442 90.2811 19.6577 84.8705 18.9615C78.7799 18.1792 72.8678 16.3795 67.5367 13.3074C67.5221 13.3009 67.5092 13.2944 67.4994 13.288C66.1135 12.3889 64.4209 12.0416 62.4864 12.5593C61.3861 12.853 60.3166 13.5314 59.4468 14.4207C55.018 16.7771 50.8943 19.5992 47.1309 22.9488C46.9508 23.1095 46.7966 23.275 46.6538 23.4422L37.3467 16.8469L35.7693 19.0751L45.771 26.1653C46.0274 28.5493 48.6597 30.6428 51.2481 30.0472L51.3568 30.1251L51.4526 29.992C52.0498 29.8216 52.6373 29.51 53.1955 29.0151C55.1235 27.2997 57.1829 25.7742 59.3381 24.3932C61.3455 29.2196 63.4147 34.02 65.5974 38.7701C62.6438 45.182 58.5997 51.0746 55.2777 57.3291C52.6795 62.2106 60.0894 66.5469 62.6812 61.6573C65.9593 55.4953 69.7893 49.6676 72.824 43.439C73.0253 43.4098 73.2232 43.379 73.4196 43.3384C75.4384 46.3018 77.6001 49.1872 79.4502 52.2982C80.8977 54.726 84.1727 55.0652 86.1866 53.1632C89.0867 50.4303 92.4785 48.2914 95.5473 45.7581C99.8203 42.2284 93.7151 36.1946 89.4859 39.6886Z" fill="#FF4100"/>
</svg>
