<svg width="64" height="67" viewBox="0 0 64 67" fill="none" xmlns="http://www.w3.org/2000/svg">
<path d="M60.6316 27.4365H50.8968C42.9137 27.4365 36.4126 20.971 36.4126 13.0315V3.35C36.4126 1.5075 34.8968 0 33.0442 0H18.7621C8.38737 0 0 6.7 0 18.6595V48.3405C0 60.3 8.38737 67 18.7621 67H45.2379C55.6126 67 64 60.3 64 48.3405V30.7865C64 28.944 62.4842 27.4365 60.6316 27.4365ZM35.3684 46.0625H21.2547L23.68 48.4745C24.6568 49.446 24.6568 51.054 23.68 52.0255C23.1747 52.528 22.5347 52.7625 21.8947 52.7625C21.2547 52.7625 20.6147 52.528 20.1095 52.0255L13.3726 45.3255C13.1368 45.091 13.0021 44.8565 12.8674 44.5885C12.8337 44.5215 12.8 44.421 12.7663 44.354C12.6989 44.153 12.6653 43.952 12.6316 43.751C12.6316 43.6505 12.6316 43.5835 12.6316 43.483C12.6316 43.215 12.6989 42.947 12.8 42.679C12.8 42.6455 12.8 42.6455 12.8337 42.612C12.9347 42.344 13.1368 42.076 13.3389 41.875C13.3726 41.8415 13.3726 41.808 13.4063 41.808L20.1432 35.108C21.12 34.1365 22.7368 34.1365 23.7137 35.108C24.6905 36.0795 24.6905 37.6875 23.7137 38.659L21.2884 41.071H35.3684C36.7495 41.071 37.8947 42.21 37.8947 43.5835C37.8947 44.957 36.7495 46.0625 35.3684 46.0625Z" fill="#FF4100"/>
</svg>
