<svg width="125" height="125" viewBox="0 0 125 125" fill="none" xmlns="http://www.w3.org/2000/svg">
<g clip-path="url(#clip0_509_673)">
<mask id="mask0_509_673" style="mask-type:luminance" maskUnits="userSpaceOnUse" x="0" y="0" width="125" height="125">
<path d="M125 0H0V125H125V0Z" fill="white"/>
</mask>
<g mask="url(#mask0_509_673)">
<path d="M125 0H0V125H125V0Z" fill="white"/>
<path d="M114.865 0H10.1351C4.53765 0 0 4.53765 0 10.1351V114.865C0 120.462 4.53765 125 10.1351 125H114.865C120.462 125 125 120.462 125 114.865V10.1351C125 4.53765 120.462 0 114.865 0Z" fill="white"/>
<path d="M25.2784 16.6517V18.1179H13.2297V16.6517H16.4233C16.8008 15.396 16.9024 14.438 16.9314 13.6903H14.362V12.2242H18.7605V12.9065C18.7605 13.7484 18.7605 14.9968 18.2887 16.6517H21.671C22.0122 15.4178 22.0847 14.496 22.1066 13.6903H19.5153V12.2242H23.9139V13.1096C23.9066 14.0315 23.9066 15.1855 23.5364 16.6517H25.2784ZM14.6959 24.839V19.0324H23.8703V20.4115H16.554V21.2389H23.5364V22.5599H16.554V23.4309H23.9574V24.839H14.6959ZM36.5577 11.7742V14.329H38.3432V15.8533H36.5577V18.3792H34.6996V11.7742H36.5577ZM26.4687 17.8856V12.3984H32.8124V17.8856H26.4687ZM27.7897 20.3244V18.9017H36.5577V22.5018H29.6333V23.3873H36.9351V24.839H27.8188V21.1663H34.7141V20.3244H27.7897ZM28.2978 16.4194H30.9834V13.85H28.2978V16.4194ZM49.9854 11.7742V20.5711H48.1273V11.7742H49.9854ZM39.1271 15.8097C39.1271 13.9153 40.6803 12.5871 42.7417 12.5871C44.7958 12.5871 46.3491 13.9153 46.3563 15.8097C46.3491 17.7114 44.7958 19.0542 42.7417 19.0469C40.6803 19.0542 39.1271 17.7114 39.1271 15.8097ZM40.3029 23.4744C43.1191 23.097 44.5127 21.6454 44.5127 20.1647V19.8888H46.4579V20.1647C46.4434 21.6381 47.8297 23.0825 50.6532 23.4744L49.9274 24.9406C47.7935 24.5922 46.262 23.6559 45.4781 22.3639C44.6797 23.6486 43.1482 24.5922 41.0288 24.9406L40.3029 23.4744ZM40.9417 15.8097C40.9272 16.8549 41.682 17.4791 42.7417 17.4791C43.7724 17.4791 44.5199 16.8549 44.5272 15.8097C44.5199 14.7646 43.7724 14.1621 42.7417 14.1694C41.682 14.1621 40.9272 14.7646 40.9417 15.8097ZM62.876 11.7742V24.9842H61.0035V11.7742H62.876ZM51.8145 21.2389C55.2259 19.6275 56.7283 17.5372 57.0259 14.6048H52.5258V13.1532H58.913C58.9058 17.1598 57.5049 20.4913 52.7871 22.7196L51.8145 21.2389Z" fill="black"/>
</g>
<path d="M113 81C113 89.0941 103.173 96 91 96C78.8267 96 69 89.0941 69 81C69 81 79.4867 83.3762 91 83.3762C102.513 83.3762 113 81 113 81Z" fill="#FF4100"/>
<path d="M74 95.9522C74 83.85 74 87.5302 91 87.5302C108 87.5302 108 83.85 108 95.8814C108 107.984 100.421 113.999 91 113.999C81.5792 114.07 74 107.984 74 95.9522Z" fill="#FF8E67"/>
<path d="M92 87L91 109L90 87H92Z" fill="#FF4100"/>
</g>
<defs>
<clipPath id="clip0_509_673">
<rect width="125" height="125" rx="20" fill="white"/>
</clipPath>
</defs>
</svg>
