<svg width="64" height="64" viewBox="0 0 64 64" fill="none" xmlns="http://www.w3.org/2000/svg">
<path d="M2.00012 29.3333C2.00012 14.2376 14.2377 2 29.3335 2C43.9919 2 55.9552 13.5387 56.6363 28.0285C53.3881 25.9027 49.5052 24.6667 45.3335 24.6667C33.9196 24.6667 24.6668 33.9195 24.6668 45.3333C24.6668 49.5051 25.9028 53.388 28.0287 56.636C23.3597 56.4165 18.9957 55.0252 15.2261 52.7493C12.4505 53.8664 9.26427 55.0273 6.34912 55.8367C4.13986 56.4501 2.14892 54.5511 2.70848 52.3101C3.46386 49.2849 4.62638 46.0151 5.78139 43.2129C3.37867 39.1443 2.00012 34.3988 2.00012 29.3333Z" fill="#FF4100"/>
<path d="M45.3333 28.6666C54.5381 28.6666 62 36.1285 62 45.3333C62 48.4009 61.1706 51.2768 59.7236 53.7466C60.2582 54.908 60.7836 56.2236 61.207 57.6289C61.8825 59.8708 59.8426 61.8068 57.6404 61.0868C56.3053 60.6502 55.0397 60.1361 53.9045 59.6298C51.3997 61.1348 48.4666 62 45.3333 62C36.1285 62 28.6666 54.5381 28.6666 45.3333C28.6666 36.1285 36.1285 28.6666 45.3333 28.6666Z" fill="#FF4100"/>
</svg>
